<svg width="17" height="16" viewBox="0 0 17 16" fill="none" xmlns="http://www.w3.org/2000/svg">
<path d="M9.11213 11.0609L6.66343 13.5096L6.66337 13.5097L6.66332 13.5097C5.65071 14.5224 4.00296 14.5225 2.99023 13.5097C2.49963 13.0191 2.22951 12.3669 2.22951 11.6731C2.22951 10.9795 2.49963 10.3273 2.99006 9.83672L2.99023 9.83654L5.43894 7.38779C5.77699 7.04967 5.77699 6.50146 5.43888 6.16341C5.10082 5.82535 4.55261 5.82535 4.2145 6.16341L1.7658 8.61217L1.76528 8.61274C0.948043 9.43027 0.497955 10.5172 0.497955 11.6731C0.497955 12.8294 0.948216 13.9165 1.76585 14.7341C2.60981 15.578 3.71829 16 4.82683 16C5.93537 16 7.04391 15.578 7.88775 14.7341L7.88781 14.734L10.3365 12.2852C10.6746 11.9472 10.6746 11.399 10.3365 11.0609C9.99846 10.7228 9.4503 10.7228 9.11213 11.0609ZM16.502 4.32681C16.502 3.17054 16.0517 2.08347 15.2341 1.26583C13.5462 -0.421972 10.7999 -0.421914 9.11219 1.26583L9.11196 1.26612L6.66332 3.7147C6.3252 4.05276 6.3252 4.60103 6.66332 4.93908C6.74362 5.01961 6.83905 5.08347 6.94411 5.12699C7.04918 5.17052 7.16181 5.19285 7.27554 5.1927C7.49706 5.1927 7.7187 5.10814 7.8877 4.93908L10.3363 2.4905L10.3366 2.49021C11.3492 1.4776 12.997 1.47754 14.0097 2.49021C14.5003 2.98081 14.7705 3.63309 14.7705 4.32681C14.7705 5.02047 14.5004 5.67263 14.0099 6.16323L14.0097 6.16341L11.561 8.61217C11.223 8.95022 11.223 9.49843 11.5611 9.83654C11.6414 9.91706 11.7368 9.98091 11.8418 10.0244C11.9469 10.068 12.0595 10.0903 12.1732 10.0902C12.3948 10.0902 12.6164 10.0056 12.7854 9.83654L15.2341 7.38779L15.2347 7.38721C16.0519 6.56968 16.502 5.48279 16.502 4.32681Z" fill="black"/>
<path d="M5.43905 11.0609C5.51935 11.1414 5.61477 11.2052 5.71982 11.2488C5.82488 11.2923 5.9375 11.3146 6.05121 11.3145C6.27279 11.3145 6.49437 11.2299 6.66343 11.0609L11.5609 6.16335C11.8991 5.8253 11.8991 5.27709 11.5609 4.93897C11.2229 4.60092 10.6747 4.60092 10.3366 4.93897L5.43905 9.83644C5.10093 10.1746 5.10093 10.7228 5.43905 11.0609Z" fill="black"/>
</svg>
