<svg width="45" height="44" viewBox="0 0 45 44" fill="none" xmlns="http://www.w3.org/2000/svg">
<rect x="0.5" width="44" height="44" rx="22" fill="#FF9C1F"/>
<path d="M12.4998 17.4288V12.851C12.4998 12.6253 12.5894 12.4089 12.7491 12.2493C12.9087 12.0897 13.1251 12 13.3508 12H17.9222C18.1479 12 18.3644 12.0897 18.524 12.2493C18.6836 12.4089 18.7733 12.6253 18.7733 12.851C18.7733 13.0768 18.6836 13.2932 18.524 13.4528C18.3644 13.6124 18.1479 13.7021 17.9222 13.7021H14.2019V17.4288C14.2019 17.6545 14.1122 17.871 13.9526 18.0306C13.793 18.1902 13.5765 18.2799 13.3508 18.2799C13.1251 18.2799 12.9087 18.1902 12.7491 18.0306C12.5894 17.871 12.4998 17.6545 12.4998 17.4288ZM31.649 12H27.0716C26.8459 12 26.6294 12.0897 26.4698 12.2493C26.3102 12.4089 26.2206 12.6253 26.2206 12.851C26.2206 13.0768 26.3102 13.2932 26.4698 13.4528C26.6294 13.6124 26.8459 13.7021 27.0716 13.7021H30.7981V17.4288C30.7981 17.6545 30.8878 17.871 31.0474 18.0306C31.207 18.1902 31.4235 18.2799 31.6492 18.2799C31.8749 18.2799 32.0913 18.1902 32.2509 18.0306C32.4105 17.871 32.5002 17.6545 32.5002 17.4288V12.851C32.5001 12.6253 32.4104 12.4089 32.2507 12.2493C32.0911 12.0897 31.8747 12.0001 31.649 12ZM31.649 25.7206C31.4232 25.7206 31.2068 25.8102 31.0472 25.9698C30.8876 26.1294 30.7979 26.3459 30.7979 26.5716V30.2979H27.0716C26.8459 30.2979 26.6294 30.3876 26.4698 30.5472C26.3102 30.7068 26.2206 30.9232 26.2206 31.149C26.2206 31.3747 26.3102 31.5911 26.4698 31.7507C26.6294 31.9103 26.8459 32 27.0716 32H31.6492C31.8749 32 32.0913 31.9103 32.2509 31.7507C32.4105 31.5911 32.5002 31.3747 32.5002 31.149V26.5716C32.5001 26.3459 32.4104 26.1295 32.2507 25.9699C32.0911 25.8103 31.8747 25.7206 31.649 25.7206ZM17.9224 30.2979H14.2019V26.5716C14.2019 26.3459 14.1122 26.1294 13.9526 25.9698C13.793 25.8102 13.5765 25.7206 13.3508 25.7206C13.1251 25.7206 12.9087 25.8102 12.7491 25.9698C12.5894 26.1294 12.4998 26.3459 12.4998 26.5716V31.149C12.4998 31.3747 12.5894 31.5911 12.7491 31.7507C12.9087 31.9103 13.1251 32 13.3508 32H17.9222C18.1479 32 18.3644 31.9104 18.524 31.7508C18.6837 31.5912 18.7733 31.3748 18.7734 31.1491C18.7734 30.9233 18.6838 30.7069 18.5242 30.5472C18.3646 30.3876 18.1481 30.2979 17.9224 30.2979ZM26.644 25.2929V18.7069C26.644 18.4812 26.5543 18.2647 26.3947 18.1051C26.2351 17.9455 26.0186 17.8558 25.7929 17.8558H19.2009C18.9752 17.8558 18.7587 17.9455 18.5991 18.1051C18.4395 18.2647 18.3499 18.4812 18.3499 18.7069V25.2929C18.3499 25.5186 18.4395 25.7351 18.5991 25.8947C18.7587 26.0543 18.9752 26.144 19.2009 26.144H25.7929C25.9047 26.144 26.0153 26.1219 26.1186 26.0792C26.2218 26.0364 26.3157 25.9737 26.3947 25.8947C26.4737 25.8157 26.5364 25.7218 26.5792 25.6186C26.6219 25.5153 26.644 25.4047 26.644 25.2929Z" fill="white"/>
</svg>
