<svg width="23" height="16" viewBox="0 0 23 16" fill="none" xmlns="http://www.w3.org/2000/svg">
<path d="M2.29012 16.0001H5.68325V7.75972L3.46138 3.87991L0.835938 4.12423V14.5459C0.835938 15.3494 1.4867 16.0001 2.29012 16.0001Z" fill="#0085F7"/>
<path d="M17.3169 16.0001H20.7101C21.5135 16.0001 22.1643 15.3494 22.1643 14.5459V4.12423L19.5426 3.87991L17.317 7.75972V16.0001H17.3169Z" fill="#00A94B"/>
<path d="M17.3164 1.4581L15.3233 5.26146L17.3164 7.7596L22.1637 4.12411V2.18521C22.1637 0.388066 20.1121 -0.63835 18.6737 0.440178L17.3164 1.4581Z" fill="#FFBC00"/>
<path fill-rule="evenodd" clip-rule="evenodd" d="M5.68303 7.75948L3.78378 3.74754L5.68303 1.45798L11.4998 5.82054L17.3165 1.45798V7.75948L11.4998 12.122L5.68303 7.75948Z" fill="#FF4131"/>
<path d="M0.835938 2.18521V4.12411L5.68325 7.7596V1.4581L4.326 0.440178C2.88756 -0.63835 0.835938 0.388066 0.835938 2.18521Z" fill="#E51C19"/>
</svg>
