<svg width="21" height="16" viewBox="0 0 21 16" fill="none" xmlns="http://www.w3.org/2000/svg">
<path d="M19.8335 5.33333H18.0558V3.55555C18.056 3.38039 18.0217 3.20691 17.9548 3.04503C17.8878 2.88316 17.7896 2.73608 17.6658 2.61222C17.5419 2.48837 17.3948 2.39016 17.233 2.32324C17.0711 2.25632 16.8976 2.22199 16.7224 2.22222H9.94467C9.74623 2.22224 9.55028 2.17795 9.37113 2.09261C9.19198 2.00726 9.03414 1.883 8.90912 1.72889L8.03801 0.657778C7.87195 0.452326 7.66203 0.286624 7.42364 0.172809C7.18524 0.0589941 6.9244 -5.01363e-05 6.66023 1.18846e-06H1.61135C1.43619 -0.000232828 1.2627 0.0340952 1.10083 0.101019C0.938954 0.167942 0.791876 0.266145 0.668018 0.390003C0.54416 0.513861 0.445956 0.660939 0.379033 0.822812C0.31211 0.984685 0.277782 1.15817 0.278016 1.33333V14.4755C0.277092 14.6757 0.316344 14.8741 0.393449 15.0588C0.470554 15.2436 0.583943 15.411 0.726904 15.5511C0.867041 15.6941 1.03444 15.8074 1.21919 15.8846C1.40393 15.9617 1.60227 16.0009 1.80246 16H16.7624C17.0927 15.9999 17.414 15.8929 17.6783 15.695C17.9427 15.4971 18.1359 15.219 18.2291 14.9022L20.6869 6.47111C20.7252 6.33864 20.7323 6.19908 20.7075 6.06343C20.6827 5.92777 20.6267 5.79974 20.544 5.68942C20.4612 5.57909 20.354 5.4895 20.2307 5.42771C20.1074 5.36591 19.9715 5.3336 19.8335 5.33333Z" fill="#376CFB"/>
<path d="M19.8332 5.33333H7.19897C6.86916 5.33342 6.54828 5.44046 6.28447 5.63839C6.02067 5.83633 5.82817 6.11448 5.73586 6.4311L3.26475 14.9026C3.17245 15.2192 2.98 15.4972 2.71627 15.6951C2.45255 15.8929 2.13178 15.9999 1.80209 16H16.7634C17.0934 16.0001 17.4144 15.8931 17.6784 15.6952C17.9424 15.4972 18.1351 15.219 18.2274 14.9022L20.6865 6.4711C20.7251 6.33863 20.7324 6.19898 20.7077 6.06321C20.683 5.92744 20.6271 5.79928 20.5443 5.68888C20.4615 5.57849 20.3541 5.48888 20.2307 5.42717C20.1073 5.36546 19.9712 5.33333 19.8332 5.33333Z" fill="#4294FF"/>
</svg>
