<svg width="19" height="16" viewBox="0 0 19 16" fill="none" xmlns="http://www.w3.org/2000/svg">
<path d="M1.90095 13.6916L2.68763 15.0561C2.85108 15.3433 3.08639 15.5692 3.3628 15.7336L6.18466 13.7329L6.1898 10.8605L3.37377 9.5918L0.553237 10.8504C0.552678 11.1681 0.634072 11.486 0.79756 11.7732L1.90095 13.6916Z" fill="#0066DD"/>
<path d="M9.51023 5.12768L9.65743 1.38598L6.70067 0.244461C6.42367 0.407949 6.18756 0.632981 6.02306 0.919626L0.800842 9.9288C0.636376 10.2155 0.553793 10.533 0.553234 10.8507L6.18979 10.8608L9.51023 5.12768Z" fill="#00AD3C"/>
<path d="M9.51029 5.12754L12.2189 3.67041L12.3373 0.254391C12.0608 0.0899247 11.7433 0.00737696 11.4154 0.00678284L7.6235 2.87036e-06C7.29555 -0.00059125 6.97769 0.091078 6.7007 0.244326L9.51029 5.12754Z" fill="#00831E"/>
<path d="M12.8102 10.8725L6.18977 10.8607L3.3628 15.7338C3.63921 15.8983 3.95679 15.9808 4.2847 15.9814L14.6969 16C15.0249 16.0006 15.3428 15.9089 15.6198 15.7557L15.6307 12.4824L12.8102 10.8725Z" fill="#0084FF"/>
<path d="M15.6198 15.7557C15.8968 15.5922 16.1329 15.3671 16.2973 15.0805L16.6263 14.5174L18.1992 11.8044C18.3636 11.5178 18.4462 11.2003 18.4468 10.8825L15.1889 9.16829L12.8205 10.8725L15.6198 15.7557Z" fill="#FF4131"/>
<path d="M15.6075 5.44576L13.0125 0.931838C12.849 0.644564 12.6137 0.418693 12.3373 0.254227L9.51027 5.12738L12.8102 10.8723L18.4365 10.8824C18.4371 10.5647 18.3556 10.2469 18.1922 9.9596L15.6075 5.44576Z" fill="#FFBA00"/>
</svg>
