<svg width="45" height="44" viewBox="0 0 45 44" fill="none" xmlns="http://www.w3.org/2000/svg">
<rect x="0.5" width="44" height="44" rx="22" fill="#D1013E"/>
<path d="M25.3906 17.8594C24.6368 17.8594 24.0234 17.2461 24.0234 16.4922V12H17.0312C15.8466 12 14.8828 12.9638 14.8828 14.1484V29.8516C14.8828 31.0362 15.8466 32 17.0312 32H27.9688C29.1534 32 30.1172 31.0362 30.1172 29.8516V17.8594H25.3906ZM18.0859 26.0625H20.9266C21.2502 26.0625 21.5125 26.3248 21.5125 26.6484C21.5125 26.972 21.2502 27.2344 20.9266 27.2344H18.0859C17.7623 27.2344 17.5 26.972 17.5 26.6484C17.5 26.3248 17.7623 26.0625 18.0859 26.0625ZM17.5 23.5234C17.5 23.1998 17.7623 22.9375 18.0859 22.9375H26.6797C27.0033 22.9375 27.2656 23.1998 27.2656 23.5234C27.2656 23.847 27.0033 24.1094 26.6797 24.1094H18.0859C17.7623 24.1094 17.5 23.847 17.5 23.5234ZM26.6797 19.8125C27.0033 19.8125 27.2656 20.0748 27.2656 20.3984C27.2656 20.722 27.0033 20.9844 26.6797 20.9844H18.0859C17.7623 20.9844 17.5 20.722 17.5 20.3984C17.5 20.0748 17.7623 19.8125 18.0859 19.8125H26.6797Z" fill="white"/>
<path d="M25.1953 16.4922C25.1953 16.5999 25.2829 16.6875 25.3906 16.6875H29.856C29.7483 16.4881 29.6097 16.3071 29.4453 16.1511L25.6788 12.5877C25.5343 12.4511 25.3716 12.3351 25.1954 12.243V16.4922H25.1953Z" fill="white"/>
</svg>
