<svg width="45" height="44" viewBox="0 0 45 44" fill="none" xmlns="http://www.w3.org/2000/svg">
<rect x="0.5" width="44" height="44" rx="22" fill="#298ECB"/>
<path d="M22.5 12C16.9766 12 12.5 16.4766 12.5 22C12.5 27.5234 16.9766 32 22.5 32C28.0234 32 32.5 27.5234 32.5 22C32.5 16.4766 28.0234 12 22.5 12ZM14.0625 22C14.0625 21.3203 14.1445 20.6406 14.3047 19.9805L17.4297 24.4922C17.6094 24.75 17.7383 25.043 17.8086 25.3477C18.0156 26.2383 18.8164 28.4258 21.8164 30.4102C17.4375 30.0547 14.0625 26.3945 14.0625 22ZM28.5469 27.8828C28.2852 27.2109 27.6094 26.2969 25.8516 26.1523C25.4844 26.1211 25.1992 25.8125 25.1992 25.4453V23.8516C25.1992 23.4609 24.8828 23.1406 24.4883 23.1406H19.9453C19.7852 23.1406 19.6523 23.0117 19.6523 22.8477V22.2891C19.6523 22.1289 19.7813 21.9961 19.9453 21.9961H22.2695C22.6992 21.9961 23.043 21.6484 23.043 21.2227V19.6445C23.043 19.2188 23.3906 18.8711 23.8164 18.8711H24.9883C25.3945 18.8711 25.7305 18.5586 25.7617 18.1523C25.832 17.1289 25.7617 15.2188 24.5234 13.8047C29.0508 14.9258 31.8086 19.5 30.6914 24.0234C30.332 25.4766 29.5898 26.8125 28.5469 27.8828Z" fill="white"/>
</svg>
