<svg width="17" height="16" viewBox="0 0 17 16" fill="none" xmlns="http://www.w3.org/2000/svg">
<path d="M16.5014 9.18157V1.77808C16.5014 0.796136 15.7052 0 14.7233 0H2.27671C1.29476 0 0.498627 0.796136 0.498627 1.77808V3.92201C2.1069 3.12054 3.91744 2.66712 5.83287 2.66712C10.4741 2.66712 14.5055 5.31691 16.5014 9.18157Z" fill="#1565C0"/>
<path d="M5.83287 3.84764C11.1853 3.84764 15.6403 7.75498 16.5014 12.8665V9.18144C14.5055 5.31678 10.4741 2.66699 5.83287 2.66699C3.91744 2.66699 2.1069 3.1204 0.498627 3.92187V5.25944C2.07401 4.36284 3.89388 3.84764 5.83287 3.84764Z" fill="#1976D2"/>
<path d="M5.83287 3.84766C3.89388 3.84766 2.07401 4.36286 0.498627 5.25945V6.64325C2.02733 5.62396 3.86143 5.0283 5.83287 5.0283C11.1489 5.0283 15.4741 9.35304 15.4741 14.6695C15.4741 15.0758 15.1847 14.9429 15.1354 15.3363C15.783 15.0709 16.1844 15.0082 16.1844 14.265L16.5014 13.8676V12.8665C15.6403 7.75455 11.1853 3.84766 5.83287 3.84766Z" fill="#1E88E5"/>
<path d="M5.83287 6.20865C10.4981 6.20865 14.2934 10.004 14.2934 14.6692C14.2934 15.124 13.9463 14.8852 13.8769 15.3209L14.6713 15.4858C14.91 15.4858 14.9131 15.6312 15.1207 15.5458C15.1696 15.1524 15.4741 15.0759 15.4741 14.6692C15.4741 9.35319 11.1493 5.028 5.83287 5.028C3.86143 5.028 2.02733 5.62366 0.498627 6.64294V8.10942C1.95532 6.92299 3.81164 6.20865 5.83287 6.20865Z" fill="#42A5F5"/>
<path d="M5.83287 6.20866C3.81164 6.20866 1.95532 6.92301 0.498627 8.10988V9.73149C1.82908 8.2948 3.72496 7.38887 5.83287 7.38887C9.84734 7.38887 13.1128 10.6543 13.1128 14.6688C13.1128 15.1249 12.7287 15.1649 12.6478 15.5978L13.7493 15.5454C13.8187 15.1097 14.2934 15.1235 14.2934 14.6688C14.2934 10.004 10.4981 6.20866 5.83287 6.20866Z" fill="#64B5F6"/>
<path d="M5.83287 7.38933C3.72496 7.38933 1.82908 8.29526 0.498627 9.73195V11.7185V13.1637C0.498627 13.1637 1.21342 14.8244 1.25298 15.0742C1.57748 15.4223 3.58449 15.1124 3.82275 15.5014L11.7868 15.6476C11.8072 15.5556 13.1132 15.1258 13.1132 14.6701C13.1128 10.6548 9.84734 7.38933 5.83287 7.38933Z" fill="#90CAF9"/>
<path d="M0.913733 14.6722C0.912844 14.7358 0.913733 14.7718 0.913733 14.6722V14.6722Z" fill="#90CAF9"/>
<path d="M16.5015 13.8573C14.7967 14.6539 12.7582 14.6268 12.7568 14.6126C12.8391 14.5512 12.9195 14.4926 12.92 14.3868C12.9204 14.0778 12.7484 14.4214 11.9296 14.0222C11.682 13.9013 11.3641 13.696 11.1272 13.5377C10.4586 13.091 10.4493 12.8474 10.1279 12.2913L9.97101 12.073C10.1301 11.9957 10.1573 12.0001 10.0772 11.7943C9.88655 11.308 9.79231 11.4529 9.65317 11.1555L8.71924 9.43391C9.18287 9.00005 9.28067 8.83069 9.78697 8.684L9.87321 8.61688C10.3306 8.31816 10.219 8.43373 10.352 8.04033C10.3929 7.91898 10.4044 7.91231 10.4382 7.77273C10.9863 7.10417 11.4859 6.38049 11.6566 5.97331L10.6489 5.9622C10.203 6.51074 9.47892 7.23708 9.13708 7.78162C9.33401 7.93187 9.2331 7.73317 9.306 7.93676C9.06063 8.40306 8.03467 8.88359 7.52481 9.01206C7.42924 8.91826 7.41057 8.85292 7.22831 8.83514C7.42657 8.56309 7.31144 8.52886 7.09185 8.35239L6.48463 7.58025C6.19614 7.12862 6.05478 6.66143 5.94676 6.46717C5.82763 6.25292 5.75028 6.3556 5.76273 6.20846C5.87741 6.07555 5.88942 6.14401 6.073 6.24758C6.98561 6.76056 6.82113 6.06888 7.04962 6.09956C7.16875 5.86352 7.2092 5.98709 7.24921 5.67237L7.5297 5.59636C7.52125 5.22696 7.34078 4.9847 7.65461 4.74955C7.53548 4.72865 7.83108 4.68331 7.65639 4.74821C7.6555 4.74866 7.6555 4.7491 7.65461 4.74955C7.66972 4.75266 7.68928 4.75488 7.71951 4.75621C7.74662 4.75755 7.75818 4.75977 7.76174 4.76244C7.76752 4.76066 7.77285 4.75888 7.78263 4.75533C7.87731 4.72821 7.80441 4.73799 7.89643 4.66198C8.01423 4.37304 8.13469 4.18412 8.01467 3.8485C7.92221 3.58979 7.7364 3.41243 7.6875 3.22662C7.16964 3.00125 7.67683 2.6194 6.49396 2.52739C6.27837 2.5105 6.45885 2.50872 6.26237 2.43448C6.10323 2.37447 5.74361 2.41537 5.57692 2.45182C5.33954 2.50383 4.80523 3.00791 4.73455 3.11371C4.53363 3.41598 4.40294 3.85828 4.40161 4.29525C4.43139 4.76777 4.38605 4.9518 4.54074 5.16339L4.69277 5.28831C4.69721 5.27853 4.71588 5.29808 4.72611 5.3052C4.62964 5.53413 4.67588 5.48878 4.55185 5.5888C4.44784 5.50879 4.31448 5.48167 4.17134 5.48567C3.78639 6.01865 4.24291 5.6826 3.25874 6.46451C2.93647 7.06194 2.56885 7.27265 2.37192 8.32483L2.27813 8.62221L2.25635 9.75574L2.44216 11.4978C2.46038 11.7285 2.40615 11.9668 2.42882 12.1722L2.94269 12.1904C2.79866 12.3144 2.69554 12.3295 3.17117 12.8434C2.23146 12.8434 1.30152 12.9785 0.499603 13.1701V14.2245C0.499603 14.693 0.684524 15.1158 0.980575 15.4336C1.29974 15.7763 1.75004 15.9933 2.25368 15.9999H14.75C14.979 15.9964 15.1972 15.9506 15.3977 15.8688C16.0445 15.603 16.5015 14.9677 16.5015 14.2245V13.8573ZM5.82318 9.28988C6.03255 9.33922 5.98988 9.44102 6.16369 9.60238C6.42818 9.84775 6.34238 9.54459 6.54508 9.70951C6.41084 9.79575 5.81829 10.1985 5.66893 10.1865C5.61959 9.94021 5.71428 9.48458 5.82318 9.28988ZM9.75141 14.144C8.77969 13.9778 7.51236 13.3501 5.58092 13.067L6.71445 12.2077C6.86958 12.0521 7.75951 11.4867 7.89909 11.4218C8.01956 11.8583 8.37206 11.9183 8.46408 12.2926C8.5152 12.5015 8.60144 12.6642 8.71257 12.7896C8.88371 12.9825 8.96728 12.8807 9.12597 12.7985C9.88032 13.7151 9.79809 13.5488 9.75141 14.144Z" fill="#212121"/>
</svg>
