<svg width="166" height="126" viewBox="0 0 166 126" fill="none" xmlns="http://www.w3.org/2000/svg">
<path d="M134.156 97.6394L39.9926 107.894C37.2555 108.192 35.2783 110.652 35.5763 113.39L36.116 118.345C36.4141 121.083 38.8746 123.06 41.6117 122.762L135.775 112.507C138.512 112.209 140.489 109.749 140.191 107.012L139.651 102.056C139.353 99.3185 136.893 97.3413 134.156 97.6394Z" fill="#FADF7D"/>
<path d="M135.235 107.551L41.072 117.806C39.7584 117.945 38.4431 117.558 37.4134 116.731C36.3837 115.904 35.7233 114.702 35.5763 113.39L36.116 118.345C36.263 119.658 36.9234 120.86 37.9531 121.687C38.9828 122.514 40.2981 122.901 41.6117 122.762L135.775 112.507C137.088 112.36 138.289 111.7 139.116 110.67C139.944 109.64 140.33 108.325 140.191 107.012L139.651 102.056C139.79 103.369 139.404 104.685 138.577 105.714C137.749 106.744 136.548 107.404 135.235 107.551Z" fill="#FFBF40"/>
<path d="M18.4039 43.4237C16.69 44.8321 14.5553 45.6287 12.3377 45.6874C10.1201 45.746 7.94628 45.0635 6.16023 43.7478C4.37418 42.432 3.07794 40.5582 2.47663 38.4229C1.87532 36.2876 2.0033 34.0128 2.84031 31.9584C3.67732 29.904 5.17556 28.1874 7.09791 27.0803C9.02026 25.9732 11.2569 25.5387 13.4539 25.8458C15.6509 26.1529 17.6828 27.1838 19.228 28.7756C20.7731 30.3673 21.7433 32.4289 21.985 34.634C22.1656 36.2813 21.9327 37.9476 21.3074 39.4823C20.6822 41.017 19.6842 42.3716 18.4039 43.4237ZM83.8576 26.4919C82.4358 27.5658 80.7498 28.2346 78.9785 28.4275C77.2072 28.6204 75.4167 28.3301 73.797 27.5875C71.8031 26.688 70.1604 25.1577 69.1219 23.2324C68.0835 21.3072 67.707 19.0939 68.0504 16.9336C68.3939 14.7733 69.4382 12.7859 71.0226 11.2776C72.6069 9.76938 74.6433 8.82401 76.8178 8.58719C78.9924 8.35038 81.1845 8.83526 83.0564 9.96713C84.9282 11.099 86.3759 12.815 87.1763 14.8507C87.9767 16.8865 88.0854 19.129 87.4857 21.2326C86.886 23.3362 85.6112 25.1842 83.8576 26.4919ZM146.963 31.0532C145.003 31.2667 143.023 30.894 141.275 29.9824C139.526 29.0708 138.087 27.6611 137.139 25.9317C136.192 24.2022 135.779 22.2306 135.952 20.2662C136.125 18.3019 136.877 16.4329 138.112 14.8958C139.347 13.3586 141.01 12.2223 142.891 11.6304C144.772 11.0386 146.787 11.0178 148.68 11.5708C150.573 12.1238 152.259 13.2256 153.526 14.737C154.792 16.2484 155.582 18.1015 155.796 20.0619C156.082 22.6907 155.312 25.3255 153.656 27.3868C151.999 29.4481 149.592 30.7669 146.963 31.0532Z" fill="#FFC608"/>
<path d="M119.927 36.0535C119.168 36.4398 118.344 36.6825 117.497 36.7694C116.418 36.8894 115.326 36.7686 114.3 36.4156C112.65 35.8664 111.243 34.7608 110.318 33.2881C109.394 31.8154 109.011 30.0673 109.234 28.343C109.457 26.6187 110.272 25.0256 111.54 23.8364C112.809 22.6471 114.451 21.9358 116.186 21.8242C117.921 21.7125 119.641 22.2075 121.051 23.2244C122.461 24.2413 123.474 25.7168 123.916 27.3983C124.358 29.0798 124.202 30.8626 123.474 32.4416C122.746 34.0206 121.492 35.2974 119.927 36.0535ZM46.2048 43.8312C45.2782 44.3969 44.2377 44.75 43.1581 44.865C42.3123 44.9625 41.4557 44.9028 40.6316 44.6889C38.9504 44.2864 37.4613 43.3124 36.4188 41.9335C35.3764 40.5545 34.8453 38.8563 34.9164 37.1291C34.9875 35.4019 35.6564 33.7531 36.8087 32.4645C37.961 31.1759 39.5251 30.3276 41.2337 30.0647C42.9422 29.8018 44.689 30.1405 46.1754 31.023C47.6618 31.9055 48.7955 33.277 49.3826 34.9029C49.9697 36.5288 49.9738 38.3081 49.3942 39.9367C48.8145 41.5652 47.6872 42.9419 46.2048 43.8312Z" fill="#FF9C00"/>
<path d="M67.9945 71.6971C65.517 76.8061 62.0242 80.421 57.1178 80.9553C53.5495 81.3439 48.783 78.3276 43.805 73.8299L40.6316 44.6889C41.4557 44.9028 42.3123 44.9625 43.1581 44.8651C44.2376 44.7501 45.2782 44.397 46.2048 43.8312C48.7975 48.9899 57.1705 64.401 67.9945 71.6971ZM119.927 36.0535L123.1 65.1945C119.207 70.6583 115.202 74.6299 111.633 75.0185C106.727 75.5528 102.538 72.7745 99.0188 68.3185C108.019 58.8635 112.878 42.0114 114.3 36.4156C115.326 36.7686 116.418 36.8895 117.497 36.7694C118.344 36.6825 119.168 36.4398 119.927 36.0535Z" fill="#FFAA00"/>
<path d="M91.3346 94.2289C91.8003 94.5079 92.3396 94.6393 92.8815 94.6058C93.4234 94.5722 93.9423 94.3753 94.3701 94.041C94.7979 93.7067 95.1143 93.2507 95.2778 92.733C95.4413 92.2153 95.4441 91.6602 95.2859 91.1409L93.2763 84.8907L96.3979 81.0906C96.7176 80.6965 96.9132 80.2165 96.96 79.7113C97.0069 79.206 96.9028 78.6982 96.6609 78.2521C96.4191 77.8061 96.0504 77.4417 95.6014 77.2052C95.1525 76.9688 94.6435 76.8708 94.1388 76.9236L89.3068 77.4499L86.1316 71.778C85.86 71.3555 85.4761 71.017 85.023 70.8006C84.5698 70.5842 84.0652 70.4983 83.566 70.5527C83.0667 70.6071 82.5925 70.7995 82.1965 71.1084C81.8005 71.4173 81.4985 71.8305 81.3243 72.3015L79.4444 78.5239L74.6123 79.0501C74.1081 79.1071 73.6322 79.3124 73.2446 79.6399C72.8571 79.9675 72.5755 80.4027 72.4353 80.8903C72.2951 81.378 72.3028 81.8963 72.4573 82.3797C72.6118 82.863 72.9061 83.2896 73.3031 83.6056L77.1695 86.6447L76.5524 93.181C76.5097 93.7222 76.6319 94.2636 76.903 94.734C77.1741 95.2044 77.5813 95.5816 78.071 95.816C78.5607 96.0504 79.1099 96.131 79.6462 96.0471C80.1826 95.9632 80.681 95.7189 81.0758 95.3461L85.795 91.021L91.3346 94.2289ZM123.1 65.1945C131.588 53.3381 139.579 34.3898 141.361 30.0335C143.09 30.9107 145.036 31.2651 146.963 31.0532L133.076 87.7275L134.156 97.6394L39.9926 107.894L38.9132 97.982L13.1525 45.6253C15.0798 45.4175 16.9047 44.6524 18.4039 43.4237C21.082 47.2942 32.9644 64.0783 43.8051 73.8299C48.783 78.3276 53.5495 81.3439 57.1178 80.9553C62.0242 80.421 65.517 76.8061 67.9945 71.6971C74.6915 57.9044 74.0438 33.0768 73.7971 27.5875C75.4167 28.3301 77.2072 28.6204 78.9785 28.4275C80.7498 28.2346 82.4358 27.5657 83.8576 26.4919C84.7982 31.9057 89.5098 56.2907 99.0188 68.3185C102.538 72.7745 106.727 75.5528 111.633 75.0185C115.202 74.6299 119.207 70.6583 123.1 65.1945Z" fill="#FADF7D"/>
<path d="M86.1316 71.778L89.3068 77.4499L94.1388 76.9237C94.6435 76.8708 95.1525 76.9688 95.6014 77.2053C96.0504 77.4417 96.4191 77.8061 96.6609 78.2522C96.9028 78.6982 97.0069 79.206 96.9601 79.7113C96.9132 80.2165 96.7176 80.6966 96.3979 81.0906L93.2764 84.8907L95.2859 91.1409C95.4441 91.6602 95.4413 92.2153 95.2778 92.733C95.1143 93.2507 94.7979 93.7067 94.3701 94.041C93.9424 94.3754 93.4234 94.5722 92.8815 94.6058C92.3397 94.6393 91.8003 94.508 91.3346 94.229L85.795 91.021L81.0758 95.3462C80.681 95.7189 80.1826 95.9633 79.6463 96.0471C79.1099 96.131 78.5607 96.0504 78.071 95.816C77.5813 95.5816 77.1741 95.2044 76.903 94.734C76.6319 94.2636 76.5097 93.7222 76.5524 93.181L77.1695 86.6448L73.3032 83.6057C72.9061 83.2897 72.6118 82.863 72.4573 82.3797C72.3028 81.8963 72.2952 81.378 72.4353 80.8904C72.5755 80.4027 72.8571 79.9675 73.2447 79.64C73.6322 79.3124 74.1082 79.1071 74.6124 79.0501L79.4444 78.5239L81.3243 72.3015C81.4985 71.8305 81.8006 71.4173 82.1965 71.1084C82.5925 70.7995 83.0667 70.6071 83.566 70.5527C84.0653 70.4983 84.5698 70.5842 85.023 70.8006C85.4762 71.0171 85.8601 71.3555 86.1316 71.778Z" fill="#D1013E"/>
<path d="M83.3179 21.5359C81.8961 22.6098 80.2101 23.2786 78.4388 23.4715C76.6675 23.6644 74.877 23.3742 73.2573 22.6315C70.8648 21.5606 68.9943 19.5851 68.0555 17.1377C67.7247 19.269 68.1085 21.4499 69.1471 23.3402C70.1857 25.2304 71.8207 26.7239 73.7971 27.5875C75.4167 28.3301 77.2072 28.6204 78.9785 28.4275C80.7498 28.2346 82.4358 27.5657 83.8576 26.4919C85.6018 25.2231 86.877 23.4127 87.4843 21.3432C88.0917 19.2737 87.9971 17.0613 87.2152 15.0512C86.8253 17.6433 85.4239 19.9751 83.3179 21.5359ZM151.303 24.1617C149.881 25.2356 148.195 25.9045 146.424 26.0974C144.652 26.2903 142.862 26 141.242 25.2573C138.85 24.1865 136.979 22.2109 136.04 19.7635C135.709 21.8948 136.093 24.0757 137.132 25.966C138.17 27.8563 139.805 29.3497 141.782 30.2133C143.401 30.9559 145.192 31.2462 146.963 31.0533C148.735 30.8604 150.421 30.1915 151.842 29.1177C153.587 27.8489 154.862 26.0386 155.469 23.969C156.076 21.8995 155.982 19.6871 155.2 17.677C154.81 20.2691 153.409 22.601 151.303 24.1617ZM17.492 38.7339C16.0702 39.8078 14.3841 40.4766 12.6128 40.6695C10.8415 40.8624 9.05105 40.5722 7.43141 39.8295C5.03889 38.7586 3.16836 36.7831 2.22961 34.3357C1.89877 36.467 2.28257 38.6479 3.32117 40.5382C4.35977 42.4284 5.99476 43.9219 7.97112 44.7855C9.59076 45.5281 11.3812 45.8184 13.1526 45.6255C14.9239 45.4326 16.6099 44.7637 18.0317 43.6899C19.7759 42.4211 21.0511 40.6107 21.6584 38.5412C22.2658 36.4717 22.1712 34.2593 21.3893 32.2492C20.9994 34.8413 19.5979 37.1731 17.492 38.7339Z" fill="#FFAA00"/>
<path d="M45.6651 38.8752C44.7385 39.441 43.6979 39.7941 42.6184 39.9091C41.7726 40.0065 40.916 39.9468 40.0918 39.7329C39.0122 39.4865 38.002 39 37.1363 38.3094C36.2706 37.6188 35.5717 36.742 35.0916 35.7441C34.8927 36.5605 34.8329 37.4045 34.9146 38.2407C35.0745 39.778 35.7119 41.2266 36.7373 42.3831C37.7627 43.5396 39.1245 44.3459 40.6316 44.6888C41.4557 44.9027 42.3123 44.9625 43.1581 44.865C44.2376 44.75 45.2782 44.3969 46.2048 43.8312C47.8082 42.886 48.9947 41.3693 49.526 39.5854C50.0573 37.8016 49.894 35.8829 49.069 34.2144C48.842 35.1794 48.4237 36.089 47.8391 36.8896C47.2544 37.6901 46.5152 38.3653 45.6651 38.8752ZM120.004 30.7796C119.078 31.3453 118.037 31.6984 116.958 31.8134C116.112 31.9109 115.255 31.8511 114.431 31.6372C113.351 31.3909 112.341 30.9043 111.476 30.2137C110.61 29.5232 109.911 28.6463 109.431 27.6485C109.232 28.4648 109.172 29.3088 109.254 30.145C109.414 31.6823 110.051 33.1309 111.077 34.2874C112.102 35.4439 113.464 36.2503 114.971 36.5932C115.795 36.8071 116.652 36.8668 117.497 36.7694C118.577 36.6544 119.617 36.3013 120.544 35.7355C122.147 34.7904 123.334 33.2736 123.865 31.4898C124.397 29.706 124.233 27.7872 123.408 26.1188C123.181 27.0837 122.763 27.9934 122.178 28.7939C121.594 29.5945 120.854 30.2697 120.004 30.7796Z" fill="#DE8800"/>
<path d="M48.8173 73.4846C48.0055 73.1369 47.3011 72.5789 46.7768 71.8682C46.2525 71.1576 45.9272 70.3199 45.8345 69.4416L44.2375 54.777C44.0944 53.4626 44.4793 52.1452 45.3075 51.1145C46.1357 50.0839 47.3394 49.4245 48.6538 49.2813L49.1221 49.2303C48.0988 47.4586 47.1259 45.6582 46.2048 43.8312C45.2782 44.397 44.2376 44.7501 43.1581 44.8651C42.3123 44.9625 41.4557 44.9028 40.6316 44.6889L43.805 73.8299C48.783 78.3276 53.5495 81.3439 57.1178 80.9553C62.0242 80.421 65.517 76.8061 67.9945 71.6971C67.7232 71.5085 67.4493 71.2951 67.1769 71.0966C60.9188 77.362 52.9171 75.2371 48.8173 73.4846ZM117.497 36.7694C116.418 36.8895 115.326 36.7686 114.3 36.4156C113.792 38.3977 113.23 40.3653 112.613 42.3161L113.081 42.2651C114.396 42.1219 115.713 42.5068 116.744 43.335C117.774 44.1632 118.434 45.3669 118.577 46.6813L120.174 61.346C120.272 62.2236 120.135 63.1117 119.776 63.9185C119.417 64.7254 118.849 65.4219 118.131 65.9363C114.505 68.5301 107.154 72.3095 99.702 67.5471C99.479 67.802 99.2577 68.0718 99.0188 68.3185C102.538 72.7745 106.727 75.5528 111.633 75.0185C115.202 74.6299 119.207 70.6583 123.1 65.1945L119.927 36.0535C119.168 36.4398 118.344 36.6825 117.497 36.7694Z" fill="#FF9C00"/>
<path d="M141.783 38.5626C141.995 38.0051 142.399 37.5414 142.922 37.2547C143.445 36.968 144.053 36.877 144.637 36.9982L145.461 37.1767L146.963 31.0532C145.036 31.2651 143.09 30.9107 141.361 30.0335C139.579 34.3898 131.588 53.3381 123.1 65.1945C119.705 69.9596 116.226 73.5855 113.025 74.6939C117.293 73.4167 130.65 67.2408 141.783 38.5626ZM91.3346 94.2289L88.4925 92.5827L83.4969 93.1267L81.0758 95.3461C80.7235 95.6744 80.2897 95.9021 79.8195 96.0056C79.3493 96.1092 78.8599 96.0847 78.4024 95.9348C77.9449 95.7849 77.5359 95.515 77.2182 95.1533C76.9004 94.7916 76.6855 94.3513 76.5957 93.8783L53.781 96.3628C51.8094 96.5776 49.8333 96.0002 48.2873 94.7579C46.7413 93.5156 45.7522 91.7101 45.5375 89.7385L20.9697 53.4696C20.7286 53.1137 20.5836 52.7015 20.5488 52.273C20.5141 51.8445 20.5907 51.4144 20.7713 51.0243C20.9519 50.6342 21.2303 50.2974 21.5795 50.0467C21.9286 49.7959 22.3367 49.6398 22.7641 49.5933L22.8261 49.5866C21.3226 47.5515 19.8452 45.4974 18.394 43.4247C16.8974 44.6514 15.0762 45.416 13.1525 45.6253L38.9131 97.982L39.9926 107.894L134.156 97.6394L133.076 87.7275L95.3936 91.8312C95.4078 92.3124 95.2927 92.7887 95.0602 93.2103C94.8278 93.6319 94.4865 93.9835 94.072 94.2284C93.6575 94.4732 93.1848 94.6025 92.7034 94.6026C92.2219 94.6027 91.7492 94.4736 91.3346 94.2289Z" fill="#FFBF40"/>
<path d="M77.3471 38.3135C77.2908 37.0461 77.7198 35.8048 78.5467 34.8426C79.3737 33.8805 80.5364 33.2698 81.7979 33.135L85.1134 32.774C84.6552 30.6883 84.2398 28.5935 83.8675 26.4908C82.4457 27.5647 80.7597 28.2335 78.9884 28.4264C77.2171 28.6193 75.4266 28.329 73.807 27.5864C74.0537 33.0757 74.7014 57.9033 68.0044 71.696C65.517 76.8061 62.0242 80.421 57.1178 80.9553C76.9416 78.7964 77.7977 49.8184 77.3471 38.3135Z" fill="#FFBF40"/>
<path d="M98.8472 77.0578C98.3728 76.1753 97.6452 75.455 96.758 74.9895C95.8708 74.524 94.8646 74.3346 93.8689 74.4457L90.6748 74.7935L88.3055 70.5583C88.2806 70.5142 88.2532 70.4696 88.2232 70.4244C87.7035 69.6114 86.9665 68.9604 86.0956 68.5452C85.2247 68.1299 84.2549 67.967 83.2961 68.075C82.3123 68.1856 81.3803 68.5737 80.6088 69.194C79.8372 69.8143 79.258 70.6413 78.9387 71.5784L77.5366 76.2243L74.3425 76.5721C73.3458 76.6828 72.4046 77.0873 71.6384 77.7341C70.8721 78.381 70.3154 79.241 70.0391 80.2049C69.7627 81.1688 69.7792 82.1932 70.0863 83.1478C70.3934 84.1023 70.9774 84.9441 71.764 85.566L74.5589 87.769L74.0719 92.9446C73.9678 93.9805 74.1844 95.0234 74.6924 95.9322C75.2003 96.8411 75.9751 97.572 76.912 98.0261C77.806 98.4717 78.8088 98.6522 79.802 98.5463C80.9084 98.4257 81.9457 97.9493 82.7583 97.1889L86.1296 94.0937L90.0692 96.3776C90.9794 96.9203 92.0345 97.1699 93.0913 97.0924C94.1482 97.015 95.1556 96.6144 95.977 95.9449C96.7934 95.3006 97.3924 94.4215 97.6934 93.4261C97.9943 92.4307 97.9827 91.3669 97.66 90.3783L96.0672 85.4217L98.3298 82.6679C98.9655 81.8909 99.3544 80.9416 99.4466 79.942C99.5388 78.9423 99.33 77.9379 98.8472 77.0578ZM96.3973 81.0856L93.2758 84.8857L95.2853 91.1359C95.4435 91.6552 95.4407 92.2103 95.2772 92.728C95.1138 93.2457 94.7973 93.7017 94.3695 94.036C93.9418 94.3703 93.4228 94.5672 92.8809 94.6008C92.3391 94.6343 91.7998 94.503 91.334 94.224L85.795 91.021L81.0758 95.3461C80.681 95.7188 80.1826 95.9632 79.6462 96.0471C79.1098 96.131 78.5606 96.0504 78.071 95.816C77.5813 95.5816 77.1741 95.2044 76.903 94.734C76.6319 94.2636 76.5097 93.7221 76.5524 93.1809L77.1695 86.6447L73.3031 83.6056C72.9061 83.2896 72.6117 82.863 72.4573 82.3796C72.3028 81.8963 72.2951 81.378 72.4353 80.8903C72.5754 80.4026 72.8571 79.9675 73.2446 79.6399C73.6321 79.3123 74.1081 79.1071 74.6123 79.0501L79.4444 78.5239L81.3243 72.3015C81.4985 71.8304 81.8005 71.4173 82.1965 71.1084C82.5925 70.7995 83.0667 70.607 83.566 70.5527C84.0652 70.4983 84.5698 70.5842 85.0229 70.8006C85.4761 71.017 85.86 71.3555 86.1315 71.7779L89.3067 77.4498L94.1388 76.9236C94.6434 76.8708 95.1524 76.9688 95.6014 77.2052C96.0503 77.4417 96.4191 77.806 96.6609 78.2521C96.9027 78.6982 97.0068 79.206 96.96 79.7112C96.9132 80.2165 96.7176 80.6965 96.3979 81.0906L96.3973 81.0856Z" fill="#FF9C00"/>
<path d="M119.166 29.0656C120.534 28.9166 121.523 27.6863 121.374 26.3178C121.225 24.9492 119.995 23.9606 118.626 24.1097C117.258 24.2587 116.269 25.4889 116.418 26.8575C116.567 28.226 117.797 29.2147 119.166 29.0656Z" fill="#FFC608"/>
<path d="M44.8265 37.1613C46.1951 37.0122 47.1837 35.782 47.0346 34.4135C46.8856 33.0449 45.6554 32.0563 44.2868 32.2053C42.9183 32.3544 41.9297 33.5846 42.0787 34.9532C42.2277 36.3217 43.458 37.3103 44.8265 37.1613Z" fill="#FFC608"/>
<path d="M80.377 18.2456C81.7456 18.0966 82.7342 16.8663 82.5852 15.4978C82.4361 14.1292 81.2059 13.1406 79.8373 13.2897C78.4688 13.4387 77.4802 14.6689 77.6292 16.0375C77.7782 17.406 79.0085 18.3946 80.377 18.2456Z" fill="#FFFCED"/>
<path d="M150.84 20.6016C152.208 20.4525 153.197 19.2223 153.048 17.8537C152.899 16.4852 151.669 15.4966 150.3 15.6456C148.932 15.7946 147.943 17.0249 148.092 18.3934C148.241 19.762 149.471 20.7506 150.84 20.6016Z" fill="#FFFCED"/>
<path d="M17.0291 35.1738C18.3976 35.0247 19.3862 33.7945 19.2372 32.4259C19.0882 31.0574 17.8579 30.0688 16.4894 30.2178C15.1208 30.3669 14.1322 31.5971 14.2812 32.9656C14.4303 34.3342 15.6605 35.3228 17.0291 35.1738Z" fill="#FFFCED"/>
</svg>
