<svg width="19" height="16" viewBox="0 0 19 16" fill="none" xmlns="http://www.w3.org/2000/svg">
<path d="M16.7559 10.9093C16.6602 10.9081 16.5652 10.9261 16.4765 10.9622C16.3879 10.9984 16.3074 11.0519 16.2397 11.1197C16.1721 11.1875 16.1188 11.2681 16.0829 11.3569C16.0469 11.4456 16.0292 11.5407 16.0306 11.6364V13.4542C16.0306 14.0906 15.4866 14.5457 14.9417 14.5457H13.1284C13.0326 14.5444 12.9375 14.5623 12.8487 14.5984C12.76 14.6345 12.6794 14.688 12.6116 14.7558C12.5439 14.8236 12.4905 14.9043 12.4545 14.9931C12.4186 15.0819 12.4008 15.177 12.4022 15.2728C12.4022 15.727 12.6742 15.9999 13.1284 15.9999H14.9417C15.2758 16.0002 15.6067 15.9344 15.9153 15.8065C16.2239 15.6786 16.5042 15.491 16.7402 15.2544C16.9761 15.0179 17.163 14.7371 17.2902 14.4282C17.4174 14.1193 17.4823 13.7883 17.4813 13.4542V11.6364C17.4813 11.272 17.1186 10.9093 16.7559 10.9093ZM13.1284 1.45428H14.9417C15.5773 1.45428 16.0306 2.00005 16.0306 2.54582V4.36359C16.0306 4.72803 16.3026 5.09069 16.7559 5.09069C17.2093 5.09069 17.4821 4.81869 17.4821 4.36359V2.54582C17.4821 1.18228 16.3933 6.78318e-05 14.9417 6.78318e-05H13.1284C13.0326 -0.0012506 12.9375 0.0166627 12.8487 0.0527475C12.76 0.0888323 12.6794 0.142356 12.6116 0.21015C12.5439 0.277944 12.4905 0.358632 12.4545 0.447439C12.4186 0.536245 12.4008 0.631366 12.4022 0.727173C12.4022 1.18228 12.7657 1.45428 13.1284 1.45428ZM5.87158 14.5457H4.05826C3.42271 14.5457 2.96938 13.9999 2.96938 13.4542V11.6364C2.96938 11.272 2.69738 10.9093 2.24405 10.9093C1.79072 10.9093 1.51784 11.2729 1.51784 11.6364V13.4542C1.51784 14.8186 2.60672 15.9999 4.05826 15.9999H5.87158C5.96739 16.0012 6.06249 15.9833 6.15125 15.9473C6.24001 15.9112 6.32063 15.8576 6.38834 15.7899C6.45606 15.7221 6.50948 15.6414 6.54546 15.5526C6.58143 15.4638 6.59923 15.3686 6.59779 15.2728C6.59923 15.177 6.58143 15.0819 6.54546 14.9931C6.50948 14.9043 6.45606 14.8236 6.38834 14.7558C6.32063 14.688 6.24001 14.6345 6.15125 14.5984C6.06249 14.5623 5.96739 14.5444 5.87158 14.5457ZM2.24405 5.09069C2.33979 5.09189 2.43479 5.07389 2.52345 5.03775C2.61211 5.00161 2.69262 4.94807 2.76024 4.88029C2.82786 4.81251 2.8812 4.73186 2.91712 4.64311C2.95304 4.55436 2.97081 4.45932 2.96938 4.36359V2.54582C2.96938 1.90938 3.51338 1.45428 4.05826 1.45428H5.87158C5.96739 1.4556 6.06249 1.43768 6.15125 1.4016C6.24001 1.36551 6.32063 1.31199 6.38834 1.2442C6.45606 1.1764 6.50948 1.09571 6.54546 1.00691C6.58143 0.9181 6.59923 0.822979 6.59779 0.727173C6.59923 0.631366 6.58143 0.536245 6.54546 0.447439C6.50948 0.358632 6.45606 0.277944 6.38834 0.21015C6.32063 0.142356 6.24001 0.0888323 6.15125 0.0527475C6.06249 0.0166627 5.96739 -0.0012506 5.87158 6.78318e-05H4.05826C2.69738 6.78318e-05 1.51784 1.18228 1.51784 2.54582V4.36359C1.51784 4.72803 1.88139 5.09069 2.24405 5.09069Z" fill="#060608"/>
<path d="M13.1284 13.4542C13.6094 13.4518 14.0699 13.2594 14.4096 12.9189C14.7493 12.5784 14.9406 12.1174 14.9417 11.6364V10.0009H4.05916V11.6364C4.06033 12.1174 4.2516 12.5784 4.59129 12.9189C4.93097 13.2594 5.39151 13.4518 5.87248 13.4542H13.1284ZM17.6635 7.27289H14.9426V4.36358C14.9415 3.88245 14.75 3.42131 14.4102 3.08077C14.0703 2.74023 13.6095 2.54793 13.1284 2.54581H5.87159C5.39062 2.54816 4.93008 2.74057 4.5904 3.08108C4.25072 3.4216 4.05944 3.8826 4.05827 4.36358V7.45511H1.33651C1.24078 7.45391 1.14578 7.47191 1.05712 7.50805C0.96846 7.54419 0.887944 7.59773 0.820327 7.66551C0.752711 7.73329 0.699366 7.81394 0.663445 7.90269C0.627523 7.99143 0.609754 8.08648 0.611187 8.18221C0.611187 8.63643 0.883185 8.90932 1.33651 8.90932H17.6635C17.7592 8.91051 17.8542 8.89251 17.9429 8.85637C18.0315 8.82024 18.1121 8.76669 18.1797 8.69891C18.2473 8.63113 18.3006 8.55048 18.3366 8.46174C18.3725 8.37299 18.3902 8.27794 18.3888 8.18221C18.3888 7.7271 18.0261 7.27289 17.6635 7.27289Z" fill="#060608"/>
</svg>
