<svg width="15" height="16" viewBox="0 0 15 16" fill="none" xmlns="http://www.w3.org/2000/svg">
<path d="M7.49998 16H10.5345V14.8966C10.5345 14.8234 10.5054 14.7532 10.4537 14.7015C10.4019 14.6498 10.3317 14.6207 10.2586 14.6207H9.43102C8.97395 14.6207 8.60342 14.2502 8.60342 13.7931V1.93103C8.60342 1.85786 8.63249 1.78769 8.68422 1.73596C8.73596 1.68422 8.80613 1.65516 8.8793 1.65516H12.1896C13.2528 1.65516 13.6603 2.75034 13.7913 3.12606C13.81 3.18001 13.8451 3.22677 13.8917 3.25981C13.9383 3.29284 13.9941 3.31051 14.0512 3.31034H14.3965C14.4328 3.31034 14.4686 3.30321 14.5021 3.28934C14.5356 3.27548 14.566 3.25516 14.5916 3.22954C14.6172 3.20392 14.6376 3.17351 14.6514 3.14004C14.6653 3.10657 14.6724 3.0707 14.6724 3.03447V0.275875C14.6724 0.202708 14.6434 0.132539 14.5916 0.0808019C14.5399 0.0290653 14.4697 1.7705e-09 14.3965 1.7705e-09H0.603453C0.567223 -4.10287e-06 0.531347 0.00712881 0.497875 0.0209914C0.464402 0.0348539 0.433989 0.0551746 0.40837 0.0807928C0.382752 0.106411 0.362432 0.136825 0.348569 0.170297C0.334706 0.20377 0.327573 0.239645 0.327578 0.275875V3.0345C0.327578 3.10767 0.356643 3.17784 0.40838 3.22957C0.460116 3.28131 0.530286 3.31037 0.603453 3.31037H0.948828C1.00594 3.31054 1.06168 3.29287 1.10827 3.25984C1.15486 3.2268 1.18997 3.18005 1.2087 3.12609C1.33973 2.75038 1.74717 1.65519 2.81036 1.65519H6.1207C6.19387 1.65519 6.26404 1.68425 6.31578 1.73599C6.36751 1.78773 6.39658 1.8579 6.39658 1.93106V13.7931C6.39658 14.2502 6.02605 14.6207 5.56898 14.6207H4.74139C4.66822 14.6207 4.59805 14.6498 4.54632 14.7015C4.49458 14.7533 4.46552 14.8234 4.46552 14.8966V16H7.49998Z" fill="#060608"/>
</svg>
