<svg width="45" height="44" viewBox="0 0 45 44" fill="none" xmlns="http://www.w3.org/2000/svg">
<rect x="0.5" width="44" height="44" rx="22" fill="#8AC452"/>
<path d="M18.5417 16.5833C18.3207 16.5833 18.1087 16.4955 17.9524 16.3393C17.7961 16.183 17.7083 15.971 17.7083 15.75V12.8333C17.7083 12.6123 17.7961 12.4004 17.9524 12.2441C18.1087 12.0878 18.3207 12 18.5417 12C18.7627 12 18.9746 12.0878 19.1309 12.2441C19.2872 12.4004 19.375 12.6123 19.375 12.8333V15.75C19.375 15.971 19.2872 16.183 19.1309 16.3393C18.9746 16.4955 18.7627 16.5833 18.5417 16.5833ZM22.5 16.5833C22.279 16.5833 22.067 16.4955 21.9107 16.3393C21.7545 16.183 21.6667 15.971 21.6667 15.75V12.8333C21.6667 12.6123 21.7545 12.4004 21.9107 12.2441C22.067 12.0878 22.279 12 22.5 12C22.721 12 22.933 12.0878 23.0893 12.2441C23.2455 12.4004 23.3333 12.6123 23.3333 12.8333V15.75C23.3333 15.971 23.2455 16.183 23.0893 16.3393C22.933 16.4955 22.721 16.5833 22.5 16.5833ZM26.4583 16.5833C26.2373 16.5833 26.0254 16.4955 25.8691 16.3393C25.7128 16.183 25.625 15.971 25.625 15.75V12.8333C25.625 12.6123 25.7128 12.4004 25.8691 12.2441C26.0254 12.0878 26.2373 12 26.4583 12C26.6793 12 26.8913 12.0878 27.0476 12.2441C27.2039 12.4004 27.2917 12.6123 27.2917 12.8333V15.75C27.2917 15.971 27.2039 16.183 27.0476 16.3393C26.8913 16.4955 26.6793 16.5833 26.4583 16.5833Z" fill="white"/>
<path d="M28.125 13.875H16.875C16.2673 13.8754 15.6847 14.117 15.255 14.5467C14.8254 14.9764 14.5838 15.559 14.5833 16.1667V29.7083C14.5838 30.316 14.8254 30.8986 15.255 31.3283C15.6847 31.758 16.2673 31.9996 16.875 32H28.125C28.7327 31.9996 29.3153 31.758 29.745 31.3283C30.1746 30.8986 30.4162 30.316 30.4167 29.7083V16.1667C30.4162 15.559 30.1746 14.9764 29.745 14.5467C29.3153 14.117 28.7327 13.8754 28.125 13.875ZM18.75 18.6667H22.9167C23.1377 18.6667 23.3496 18.7545 23.5059 18.9107C23.6622 19.067 23.75 19.279 23.75 19.5C23.75 19.721 23.6622 19.933 23.5059 20.0893C23.3496 20.2455 23.1377 20.3333 22.9167 20.3333H18.75C18.529 20.3333 18.317 20.2455 18.1607 20.0893C18.0045 19.933 17.9167 19.721 17.9167 19.5C17.9167 19.279 18.0045 19.067 18.1607 18.9107C18.317 18.7545 18.529 18.6667 18.75 18.6667ZM27.0833 27H18.75C18.529 27 18.317 26.9122 18.1607 26.7559C18.0045 26.5996 17.9167 26.3877 17.9167 26.1667C17.9167 25.9457 18.0045 25.7337 18.1607 25.5774C18.317 25.4211 18.529 25.3333 18.75 25.3333H27.0833C27.3043 25.3333 27.5163 25.4211 27.6726 25.5774C27.8289 25.7337 27.9167 25.9457 27.9167 26.1667C27.9167 26.3877 27.8289 26.5996 27.6726 26.7559C27.5163 26.9122 27.3043 27 27.0833 27ZM27.0833 23.6667H18.75C18.529 23.6667 18.317 23.5789 18.1607 23.4226C18.0045 23.2663 17.9167 23.0543 17.9167 22.8333C17.9167 22.6123 18.0045 22.4004 18.1607 22.2441C18.317 22.0878 18.529 22 18.75 22H27.0833C27.3043 22 27.5163 22.0878 27.6726 22.2441C27.8289 22.4004 27.9167 22.6123 27.9167 22.8333C27.9167 23.0543 27.8289 23.2663 27.6726 23.4226C27.5163 23.5789 27.3043 23.6667 27.0833 23.6667Z" fill="white"/>
</svg>
