<svg width="16" height="22" viewBox="0 0 16 22" fill="none" xmlns="http://www.w3.org/2000/svg">
<g clip-path="url(#clip0_1_5994)">
<path fill-rule="evenodd" clip-rule="evenodd" d="M8.37687 16.932C8.26227 17.0466 8.10686 17.1109 7.94482 17.1109C7.78277 17.1109 7.62736 17.0466 7.51276 16.932L4.05571 13.475C3.99734 13.4186 3.95078 13.3512 3.91875 13.2766C3.88673 13.202 3.86987 13.1219 3.86916 13.0407C3.86846 12.9596 3.88392 12.8791 3.91465 12.804C3.94538 12.7289 3.99075 12.6607 4.04813 12.6033C4.10551 12.5459 4.17374 12.5005 4.24884 12.4698C4.32395 12.4391 4.40442 12.4236 4.48556 12.4243C4.5667 12.425 4.64689 12.4419 4.72145 12.4739C4.79601 12.5059 4.86344 12.5525 4.91982 12.6109L7.94482 15.6359L10.9698 12.6109C11.0851 12.4995 11.2394 12.4379 11.3997 12.4393C11.5599 12.4407 11.7132 12.505 11.8265 12.6183C11.9398 12.7316 12.0041 12.8849 12.0054 13.0451C12.0068 13.2053 11.9452 13.3597 11.8339 13.475L8.37687 16.932Z" fill="black"/>
</g>
<g clip-path="url(#clip1_1_5994)">
<path fill-rule="evenodd" clip-rule="evenodd" d="M7.45741 5.25489C7.56919 5.13757 7.72299 5.06946 7.88499 5.06553C8.04699 5.06159 8.20391 5.12216 8.32126 5.23391L11.8612 8.60602C11.9209 8.66096 11.9691 8.72724 12.003 8.801C12.0368 8.87476 12.0556 8.95451 12.0583 9.03562C12.0609 9.11672 12.0474 9.19754 12.0185 9.27337C11.9896 9.34919 11.9459 9.41851 11.89 9.47726C11.834 9.53602 11.7669 9.58304 11.6925 9.61558C11.6182 9.64812 11.5381 9.66553 11.457 9.6668C11.3759 9.66806 11.2953 9.65316 11.22 9.62295C11.1447 9.59274 11.0761 9.54783 11.0183 9.49085L7.9208 6.54018L4.97013 9.63773C4.85761 9.75181 4.70478 9.81714 4.54457 9.81964C4.38435 9.82214 4.22956 9.76161 4.11354 9.65109C3.99751 9.54056 3.92954 9.3889 3.92426 9.22875C3.91898 9.0686 3.97681 8.91278 4.0853 8.79485L7.45741 5.25489Z" fill="black"/>
</g>
<defs>
<clipPath id="clip0_1_5994">
<rect width="14.6667" height="14.6667" fill="white" transform="translate(0.611328 7.33334)"/>
</clipPath>
<clipPath id="clip1_1_5994">
<rect width="14.6667" height="14.6667" fill="white" transform="translate(15.0186 14.6623) rotate(178.609)"/>
</clipPath>
</defs>
</svg>
