<svg width="28" height="28" viewBox="0 0 28 28" fill="none" xmlns="http://www.w3.org/2000/svg">
<path d="M12.1497 3.51394C12.3043 3.95146 12.2788 4.43249 12.0789 4.85124C11.8789 5.26999 11.5208 5.59218 11.0833 5.74694C9.57106 6.28161 8.23485 7.22169 7.22073 8.46443C6.20661 9.70718 5.55361 11.2048 5.33309 12.7935C5.11257 14.3823 5.33301 16.0012 5.97032 17.4731C6.60764 18.9451 7.6373 20.2135 8.94679 21.1399C10.2563 22.0662 11.7952 22.6148 13.3954 22.7256C14.9956 22.8364 16.5954 22.5053 18.0201 21.7683C19.4448 21.0314 20.6395 19.917 21.4737 18.547C22.3078 17.1769 22.7494 15.604 22.75 13.9999C22.75 12.5999 22.4233 11.2816 21.8412 10.1126C21.7388 9.90677 21.678 9.68279 21.6622 9.45346C21.6465 9.22413 21.676 8.99393 21.7492 8.77601C21.897 8.33591 22.2135 7.97255 22.6292 7.76586C23.045 7.55916 23.5257 7.52608 23.9658 7.67387C24.4059 7.82166 24.7693 8.13823 24.976 8.55394C25.8166 10.2462 26.2527 12.1105 26.25 13.9999C26.25 20.7654 20.7655 26.2499 14 26.2499C7.2345 26.2499 1.75 20.7654 1.75 13.9999C1.75 8.66361 5.16133 4.12877 9.91667 2.44761C10.3542 2.29296 10.8352 2.31842 11.254 2.51839C11.6727 2.71836 11.9949 3.07646 12.1497 3.51394ZM14.5833 3.51627C14.5831 3.25009 14.6433 2.98733 14.7592 2.74771C14.8751 2.5081 15.0438 2.29788 15.2527 2.13283C15.4615 1.96778 15.705 1.85221 15.9649 1.79478C16.2249 1.73736 16.4944 1.73957 16.7533 1.80127L16.9027 1.84444L20.3863 3.00644C20.8129 3.14858 21.1684 3.44944 21.379 3.84663C21.5897 4.24382 21.6395 4.70686 21.5179 5.13973C21.3964 5.5726 21.1129 5.94209 20.7263 6.17157C20.3397 6.40105 19.8795 6.47292 19.4413 6.37227L19.2803 6.32677L18.0833 5.92777V13.9999L18.0775 14.2239C18.0328 15.0374 17.7458 15.819 17.2533 16.468C16.7609 17.117 16.0855 17.6039 15.3141 17.8661C14.5428 18.1282 13.7106 18.1536 12.9246 17.939C12.1387 17.7244 11.4349 17.2795 10.9038 16.6617C10.3727 16.0439 10.0386 15.2813 9.94438 14.4721C9.85016 13.6628 10.0002 12.8439 10.3751 12.1206C10.7501 11.3973 11.3329 10.8027 12.0485 10.4133C12.7641 10.0238 13.5798 9.85736 14.3908 9.93527L14.5833 9.95861V3.51627Z" fill="#2C94F8"/>
</svg>
