<svg width="24" height="24" viewBox="0 0 24 24" fill="none" xmlns="http://www.w3.org/2000/svg">
<path d="M20.713 8.1281L20.467 8.6941C20.4286 8.78627 20.3637 8.865 20.2806 8.92038C20.1975 8.97575 20.0999 9.00531 20 9.00531C19.9001 9.00531 19.8025 8.97575 19.7194 8.92038C19.6363 8.865 19.5715 8.78627 19.533 8.6941L19.287 8.1281C18.8545 7.12683 18.0624 6.32402 17.067 5.8781L16.308 5.5391C16.2159 5.49675 16.1379 5.42887 16.0832 5.34353C16.0286 5.25819 15.9995 5.15896 15.9995 5.0576C15.9995 4.95625 16.0286 4.85702 16.0832 4.77168C16.1379 4.68633 16.2159 4.61846 16.308 4.5761L17.025 4.2571C18.0454 3.79848 18.8511 2.96599 19.276 1.9311L19.529 1.3201C19.5662 1.22546 19.631 1.1442 19.715 1.08693C19.799 1.02966 19.8983 0.999023 20 0.999023C20.1017 0.999023 20.201 1.02966 20.285 1.08693C20.369 1.1442 20.4338 1.22546 20.471 1.3201L20.724 1.9301C21.1485 2.96518 21.9538 3.79804 22.974 4.2571L23.692 4.5771C23.7838 4.61958 23.8615 4.68745 23.916 4.77268C23.9705 4.85791 23.9994 4.95695 23.9994 5.0581C23.9994 5.15926 23.9705 5.2583 23.916 5.34353C23.8615 5.42876 23.7838 5.49662 23.692 5.5391L22.932 5.8771C21.9368 6.32347 21.1451 7.12663 20.713 8.1281ZM22 12.0001C22 11.5548 21.9717 11.1174 21.915 10.6881C21.2978 10.8953 20.651 11.0007 20 11.0001C18.9469 11.0004 17.9122 10.7234 17 10.1971V15.0001H15V9.0001H15.528C14.5424 7.90108 13.9982 6.47633 14 5.0001C14 4.0471 14.222 3.1461 14.617 2.3461C13.7638 2.11563 12.8838 1.99929 12 2.0001C6.47701 2.0001 2.00001 6.47711 2.00001 12.0001C1.99839 13.3136 2.25631 14.6144 2.75897 15.8279C3.26162 17.0413 3.99909 18.1435 4.92901 19.0711L2.00001 22.0001H12C17.523 22.0001 22 17.5231 22 12.0001ZM11 6.0001H13V18.0001H11V6.0001ZM7.00001 15.0001V9.0001H9.00001V15.0001H7.00001Z" fill="#2C94F8"/>
</svg>
