<svg width="24" height="24" viewBox="0 0 24 24" fill="none" xmlns="http://www.w3.org/2000/svg">
<path d="M20.68 7.014C20.4579 6.54995 20.1451 6.13512 19.76 5.794L16.76 3.074C16.0997 2.46875 15.2613 2.09339 14.37 2.004H8.21C7.54756 1.97591 6.88615 2.07985 6.26425 2.30978C5.64236 2.53971 5.07241 2.89103 4.58757 3.3433C4.10273 3.79557 3.71269 4.33975 3.44014 4.94418C3.16758 5.54861 3.01797 6.20121 3 6.864V17.164C3.03538 18.1635 3.36969 19.1295 3.95975 19.937C4.54981 20.7446 5.36849 21.3566 6.31 21.694C6.92211 21.9267 7.57609 22.0288 8.23 21.994H15.79C16.4524 22.0221 17.1139 21.9181 17.7357 21.6882C18.3576 21.4583 18.9276 21.107 19.4124 20.6547C19.8973 20.2024 20.2873 19.6582 20.5599 19.0538C20.8324 18.4494 20.982 17.7968 21 17.134V8.564C21.0048 8.03045 20.8957 7.50202 20.68 7.014ZM7.68 6.614H10.94C11.2052 6.614 11.4596 6.71936 11.6471 6.90689C11.8346 7.09443 11.94 7.34878 11.94 7.614C11.94 7.87922 11.8346 8.13357 11.6471 8.32111C11.4596 8.50864 11.2052 8.614 10.94 8.614H7.68C7.41478 8.614 7.16043 8.50864 6.97289 8.32111C6.78536 8.13357 6.68 7.87922 6.68 7.614C6.68 7.34878 6.78536 7.09443 6.97289 6.90689C7.16043 6.71936 7.41478 6.614 7.68 6.614ZM16.38 17.324H7.68C7.41478 17.324 7.16043 17.2186 6.97289 17.0311C6.78536 16.8436 6.68 16.5892 6.68 16.324C6.68 16.0588 6.78536 15.8044 6.97289 15.6169C7.16043 15.4294 7.41478 15.324 7.68 15.324H16.38C16.6184 15.358 16.8365 15.4768 16.9943 15.6587C17.1521 15.8405 17.2389 16.0732 17.2389 16.314C17.2389 16.5548 17.1521 16.7875 16.9943 16.9693C16.8365 17.1512 16.6184 17.27 16.38 17.304V17.324ZM16.38 12.974H7.68C7.41478 12.974 7.16043 12.8686 6.97289 12.6811C6.78536 12.4936 6.68 12.2392 6.68 11.974C6.68 11.7088 6.78536 11.4544 6.97289 11.2669C7.16043 11.0794 7.41478 10.974 7.68 10.974H16.38C16.6452 10.974 16.8996 11.0794 17.0871 11.2669C17.2746 11.4544 17.38 11.7088 17.38 11.974C17.38 12.2392 17.2746 12.4936 17.0871 12.6811C16.8996 12.8686 16.6452 12.974 16.38 12.974ZM16.06 7.404C15.9173 7.40532 15.7758 7.37836 15.6436 7.32468C15.5114 7.271 15.3912 7.19165 15.2899 7.09123C15.1885 6.99082 15.1081 6.87131 15.0532 6.73962C14.9983 6.60793 14.97 6.46667 14.97 6.324V3.674C15.63 3.834 18.2 6.474 18.76 6.914C18.9256 7.05352 19.0674 7.21901 19.18 7.404H16.06Z" fill="#2C94F8"/>
</svg>
