<svg width="24" height="24" viewBox="0 0 24 24" fill="none" xmlns="http://www.w3.org/2000/svg">
<path d="M13.2132 9.78699C12.8984 9.47208 12.5246 9.22227 12.1133 9.05183C11.7019 8.8814 11.261 8.79368 10.8157 8.79368C10.3704 8.79368 9.92952 8.8814 9.51815 9.05183C9.10678 9.22227 8.73302 9.47208 8.41821 9.78699L4.99321 13.213C4.35749 13.8488 4.00039 14.7112 4.00049 15.6103C4.00058 16.5095 4.35786 17.3718 4.99371 18.0075C5.62957 18.6432 6.49192 19.0003 7.39107 19.0002C8.29021 19.0001 9.15249 18.6428 9.78821 18.007L10.1092 17.703M9.78821 13.213C10.103 13.5279 10.4768 13.7777 10.8881 13.9481C11.2995 14.1186 11.7404 14.2063 12.1857 14.2063C12.631 14.2063 13.0719 14.1186 13.4833 13.9481C13.8946 13.7777 14.2684 13.5279 14.5832 13.213L18.0072 9.78699C18.6431 9.15127 19.0003 8.28899 19.0004 7.38984C19.0005 6.4907 18.6434 5.62835 18.0077 4.99249C17.372 4.35663 16.5097 3.99936 15.6106 3.99927C14.7114 3.99917 13.8491 4.35627 13.2132 4.99199L12.1852 5.95299" stroke="#2C94F8" stroke-width="2" stroke-linecap="round" stroke-linejoin="round"/>
</svg>
