<svg width="24" height="24" viewBox="0 0 24 24" fill="none" xmlns="http://www.w3.org/2000/svg">
<path d="M19 2V5M19 5V8M19 5H22M19 5H16" stroke="#2C94F8" stroke-width="2" stroke-linecap="round" stroke-linejoin="round"/>
<path fill-rule="evenodd" clip-rule="evenodd" d="M13 2H5C4.20435 2 3.44129 2.31607 2.87868 2.87868C2.31607 3.44129 2 4.20435 2 5V15.5C2 15.5867 2.01067 15.67 2.032 15.75C2.01083 15.8316 2.00008 15.9157 2 16V19C2 19.7956 2.31607 20.5587 2.87868 21.1213C3.44129 21.6839 4.20435 22 5 22H19C19.7956 22 20.5587 21.6839 21.1213 21.1213C21.6839 20.5587 22 19.7956 22 19V12C21.9999 11.9157 21.9892 11.8316 21.968 11.75C21.9892 11.6684 21.9999 11.5843 22 11.5V11H20V11.016C15.703 11.155 12.6 12.19 10.42 13.639C11.246 13.932 12.17 14.349 13.076 14.895C14.475 15.735 15.897 16.915 16.854 18.478C16.9226 18.59 16.9684 18.7144 16.9888 18.8442C17.0093 18.9739 17.004 19.1064 16.9733 19.2341C16.9425 19.3617 16.887 19.4821 16.8097 19.5883C16.7324 19.6945 16.635 19.7845 16.523 19.853C16.411 19.9216 16.2866 19.9674 16.1568 19.9878C16.0271 20.0083 15.8946 20.003 15.7669 19.9723C15.6393 19.9415 15.5189 19.886 15.4127 19.8087C15.3065 19.7314 15.2165 19.634 15.148 19.522C14.412 18.319 13.27 17.344 12.046 16.609C10.824 15.875 9.581 15.417 8.719 15.217C7.50466 14.94 6.26136 14.8104 5.016 14.831H4.994C4.646 14.8363 4.31467 14.8513 4 14.876V5C4 4.73478 4.10536 4.48043 4.29289 4.29289C4.48043 4.10536 4.73478 4 5 4H13V2ZM8.5 6C7.95504 6.00533 7.42446 6.17546 6.978 6.488C6.408 6.898 6 7.574 6 8.5C6 9.426 6.408 10.101 6.978 10.511C7.42348 10.8256 7.95463 10.9963 8.5 11C8.91 11 9.503 10.885 10.022 10.511C10.592 10.101 11 9.426 11 8.5C11 7.574 10.592 6.899 10.022 6.488C9.5764 6.17374 9.04526 6.00344 8.5 6Z" fill="#2C94F8"/>
</svg>
