<svg width="24" height="24" viewBox="0 0 24 24" fill="none" xmlns="http://www.w3.org/2000/svg">
<path d="M14.0001 8H18.0001L14.0001 4V8ZM6.61615 21C6.17148 21 5.79115 20.8417 5.47515 20.525C5.15915 20.2083 5.00081 19.8287 5.00015 19.386V16.5H19.0001V19.385C19.0001 19.829 18.8418 20.209 18.5251 20.525C18.2085 20.841 17.8285 20.9993 17.3851 21H6.61615ZM1.57715 14.5V13.5H22.4231V14.5H1.57715ZM5.00015 11.5V4.616C5.00015 4.17133 5.15848 3.791 5.47515 3.475C5.79181 3.159 6.17181 3.00067 6.61515 3H14.5001L19.0001 7.5V11.5H5.00015Z" fill="#2C94F8"/>
</svg>
