<svg width="25" height="24" viewBox="0 0 25 24" fill="none" xmlns="http://www.w3.org/2000/svg">
<g clip-path="url(#clip0_283_347)">
<path d="M13 2C7.48 2 3 6.48 3 12C3 17.52 7.48 22 13 22C18.52 22 23 17.52 23 12C23 6.48 18.52 2 13 2ZM13 20C8.59 20 5 16.41 5 12C5 7.59 8.59 4 13 4C17.41 4 21 7.59 21 12C21 16.41 17.41 20 13 20ZM7.5 17.5L15.01 14.01L18.5 6.5L10.99 9.99L7.5 17.5ZM13 10.9C13.61 10.9 14.1 11.39 14.1 12C14.1 12.61 13.61 13.1 13 13.1C12.39 13.1 11.9 12.61 11.9 12C11.9 11.39 12.39 10.9 13 10.9Z" fill="#333333"/>
</g>
<defs>
<clipPath id="clip0_283_347">
<rect width="24" height="24" fill="white" transform="translate(0.700073)"/>
</clipPath>
</defs>
</svg>
