<svg width="42" height="42" viewBox="0 0 42 42" fill="none" xmlns="http://www.w3.org/2000/svg">
<rect width="41.0455" height="41.0455" rx="9.54545" fill="#2C94F8"/>
<path d="M30.3335 9.33337H11.6668C10.3835 9.33337 9.3335 10.3834 9.3335 11.6667V25.6667C9.3335 26.95 10.3835 28 11.6668 28H16.3335V31.5C16.3335 32.2 16.8002 32.6667 17.5002 32.6667H18.0835C18.3168 32.6667 18.6668 32.55 18.9002 32.3167L23.2168 28H30.3335C31.6168 28 32.6668 26.95 32.6668 25.6667V11.6667C32.6668 10.3834 31.6168 9.33337 30.3335 9.33337ZM19.8335 22.1667H15.1668V17.2667L16.6835 14H19.0168L17.3835 17.5H19.8335V22.1667ZM26.8335 22.1667H22.1668V17.2667L23.6835 14H26.0168L24.3835 17.5H26.8335V22.1667Z" fill="white"/>
</svg>
