<svg width="25" height="24" viewBox="0 0 25 24" fill="none" xmlns="http://www.w3.org/2000/svg">
<path d="M20.9 22C22.0046 22 22.9 21.1046 22.9 20V10.9612C22.9 10.3537 22.6238 9.77906 22.1494 9.39951L14.1494 2.99951C13.419 2.41516 12.3811 2.41516 11.6506 2.99951L3.65063 9.39951C3.1762 9.77906 2.90002 10.3537 2.90002 10.9612V20C2.90002 21.1046 3.79545 22 4.90002 22H6.90002C8.00459 22 8.90002 21.1046 8.90002 20V15C8.90002 13.8954 9.79545 13 10.9 13H14.9C16.0046 13 16.9 13.8954 16.9 15V20C16.9 21.1046 17.7955 22 18.9 22H20.9Z" fill="black" stroke="black" stroke-width="2" stroke-linejoin="round"/>
<path d="M12.9 22V17" stroke="black" stroke-width="2" stroke-linecap="round" stroke-linejoin="round"/>
</svg>
