<svg width="20" height="20" viewBox="0 0 20 20" fill="none" xmlns="http://www.w3.org/2000/svg">
<path fill-rule="evenodd" clip-rule="evenodd" d="M15 5V15H5V5H15ZM9.20898 7.5H8.23508L6.38609 12.5H7.26473L7.61379 11.5225H9.82715L10.1688 12.5H11.1003L9.20898 7.5ZM12.6599 7.5H11.7848V12.5H12.6599V7.5ZM8.71461 8.33887L9.58629 10.8333H7.85684L8.71461 8.33887ZM15.8334 12.5H17.5V14.1667H15.8333L15.8334 12.5ZM5.8334 15.8333H7.5V17.5H5.83332L5.8334 15.8333ZM9.16672 15.8333H10.8334V17.5H9.16672V15.8333ZM5.83332 2.5H7.5V4.16668H5.83332V2.5ZM12.5 15.8333H14.1667V17.5H12.5V15.8333ZM9.16668 2.5H10.8333V4.16668H9.16668V2.5ZM12.5 2.5H14.1667V4.16668H12.5V2.5ZM15.8333 9.16668H17.5V10.8333H15.8333V9.16668ZM2.5 12.5H4.16668V14.1667H2.5V12.5ZM15.8333 5.83332H17.5V7.5H15.8333V5.83332ZM2.5 9.16668H4.16668V10.8333H2.5V9.16668ZM2.5 5.83332H4.16668V7.5H2.5V5.83332Z" fill="white"/>
</svg>
