<svg width="15" height="41" viewBox="0 0 15 41" fill="none" xmlns="http://www.w3.org/2000/svg">
<path fill-rule="evenodd" clip-rule="evenodd" d="M8.64437 36.8274L12.5299 31.8822L14.1025 33.1179L8.60255 40.1179L7.99845 40.8867L7.21623 40.3C6.22404 39.5559 4.66075 38.4145 3.20029 37.412C2.4694 36.9103 1.7725 36.449 1.18987 36.0913C0.576359 35.7146 0.17527 35.5071 0 35.4487L0.632456 33.5513C1.05719 33.6929 1.6436 34.023 2.23634 34.3869C2.85995 34.7698 3.58805 35.2523 4.33216 35.7631C5.12636 36.3083 5.94819 36.8921 6.69516 37.433C4.93182 20.2195 7.69582 6.19962 9.35934 0.710022L11.2734 1.29004C9.69032 6.51417 6.99458 20.0914 8.64437 36.8274Z" fill="black" fill-opacity="0.43"/>
</svg>
