<svg width="24" height="24" viewBox="0 0 24 24" fill="none" xmlns="http://www.w3.org/2000/svg">
<path d="M8 12V10H16V12H8ZM8 8V6H16V8H8ZM6 14H13.5C13.9833 14 14.4333 14.1043 14.85 14.313C15.2667 14.5217 15.6167 14.8173 15.9 15.2L18 17.95V4H6V14ZM6 20H17.05L14.325 16.425C14.225 16.2917 14.1043 16.1877 13.963 16.113C13.8217 16.0383 13.6673 16.0007 13.5 16H6V20ZM18 22H6C5.45 22 4.97933 21.8043 4.588 21.413C4.19667 21.0217 4.00067 20.5507 4 20V4C4 3.45 4.196 2.97933 4.588 2.588C4.98 2.19667 5.45067 2.00067 6 2H18C18.55 2 19.021 2.196 19.413 2.588C19.805 2.98 20.0007 3.45067 20 4V20C20 20.55 19.8043 21.021 19.413 21.413C19.0217 21.805 18.5507 22.0007 18 22Z" fill="black"/>
</svg>
