<svg width="47" height="47" viewBox="0 0 47 47" fill="none" xmlns="http://www.w3.org/2000/svg">
<path d="M10.9666 25.0667H9.3999V21.9333H10.9666C11.3821 21.9333 11.7806 22.0984 12.0744 22.3922C12.3682 22.686 12.5332 23.0845 12.5332 23.5C12.5332 23.9155 12.3682 24.314 12.0744 24.6078C11.7806 24.9016 11.3821 25.0667 10.9666 25.0667ZM21.9332 31.3334V21.9333H23.4999C23.9154 21.9333 24.3139 22.0984 24.6077 22.3922C24.9015 22.686 25.0666 23.0845 25.0666 23.5V29.7667C25.0666 30.1822 24.9015 30.5807 24.6077 30.8745C24.3139 31.1683 23.9154 31.3334 23.4999 31.3334H21.9332Z" fill="#FF0000"/>
<path fill-rule="evenodd" clip-rule="evenodd" d="M3.1333 4.7C3.1333 3.45348 3.62848 2.25802 4.5099 1.3766C5.39132 0.495177 6.58678 0 7.8333 0L33.5486 0L43.8666 10.3181V42.3C43.8666 43.5465 43.3715 44.742 42.49 45.6234C41.6086 46.5048 40.4132 47 39.1666 47H7.8333C6.58678 47 5.39132 46.5048 4.5099 45.6234C3.62848 44.742 3.1333 43.5465 3.1333 42.3V4.7ZM10.9666 18.8H6.26663V34.4667H9.39997V28.2H10.9666C12.2132 28.2 13.4086 27.7048 14.29 26.8234C15.1715 25.942 15.6666 24.7465 15.6666 23.5C15.6666 22.2535 15.1715 21.058 14.29 20.1766C13.4086 19.2952 12.2132 18.8 10.9666 18.8ZM23.5 18.8H18.8V34.4667H23.5C24.7465 34.4667 25.9419 33.9715 26.8234 33.0901C27.7048 32.2086 28.2 31.0132 28.2 29.7667V23.5C28.2 22.2535 27.7048 21.058 26.8234 20.1766C25.9419 19.2952 24.7465 18.8 23.5 18.8ZM31.3333 34.4667V18.8H40.7333V21.9333H34.4666V25.0667H37.6V28.2H34.4666V34.4667H31.3333Z" fill="#FF0000"/>
</svg>
