<svg width="25" height="24" viewBox="0 0 25 24" fill="none" xmlns="http://www.w3.org/2000/svg">
<path d="M16.07 3.34402L14.642 4.12502L16.07 4.90602L16.851 6.33402L17.632 4.90602L19.06 4.12502L17.632 3.34402L16.852 1.91602L16.07 3.34402ZM2.226 12C2.226 6.47702 6.703 2.00002 12.226 2.00002H13.96L13.092 3.50002C12.513 4.50002 12.226 5.68902 12.226 7.00002C12.2258 8.03363 12.4546 9.05446 12.8958 9.98917C13.3371 10.9239 13.9798 11.7493 14.7779 12.4061C15.576 13.0629 16.5097 13.5348 17.5118 13.7879C18.514 14.041 19.5597 14.0691 20.574 13.87L22.256 13.543L21.713 15.169C21.0482 17.1587 19.7745 18.889 18.0721 20.1149C16.3697 21.3408 14.3249 22.0003 12.227 22C6.704 22 2.226 17.523 2.226 12ZM20.727 6.41602L21.641 8.08602L23.31 9.00002L21.64 9.91402L20.726 11.584L19.813 9.91402L18.143 9.00002L19.813 8.08602L20.727 6.41602Z" fill="black"/>
</svg>
