<svg width="42" height="42" viewBox="0 0 42 42" fill="none" xmlns="http://www.w3.org/2000/svg">
<rect width="41.0455" height="41.0455" rx="9.54545" fill="#2C94F8"/>
<path fill-rule="evenodd" clip-rule="evenodd" d="M28 10.2084C27.7679 10.2084 27.5454 10.1162 27.3813 9.95209C27.2172 9.788 27.125 9.56544 27.125 9.33337C27.125 9.10131 27.2172 8.87875 27.3813 8.71466C27.5454 8.55056 27.7679 8.45837 28 8.45837H32.6667C32.8396 8.45853 33.0086 8.50993 33.1524 8.60608C33.2961 8.70224 33.4082 8.83884 33.4743 8.99863C33.5405 9.15842 33.5578 9.33423 33.5241 9.50387C33.4904 9.6735 33.4072 9.82934 33.285 9.95171L30.1117 13.125H32.6667C32.8987 13.125 33.1213 13.2172 33.2854 13.3813C33.4495 13.5454 33.5417 13.768 33.5417 14C33.5417 14.2321 33.4495 14.4547 33.2854 14.6188C33.1213 14.7829 32.8987 14.875 32.6667 14.875H28C27.8271 14.8749 27.658 14.8235 27.5143 14.7273C27.3705 14.6312 27.2585 14.4946 27.1923 14.3348C27.1262 14.175 27.1088 13.9992 27.1425 13.8295C27.1762 13.6599 27.2595 13.5041 27.3817 13.3817L30.555 10.2084H28ZM22.75 17.2084C22.5179 17.2084 22.2954 17.1162 22.1313 16.9521C21.9672 16.788 21.875 16.5654 21.875 16.3334C21.875 16.1013 21.9672 15.8787 22.1313 15.7147C22.2954 15.5506 22.5179 15.4584 22.75 15.4584H26.25C26.4229 15.4585 26.592 15.5099 26.7357 15.6061C26.8795 15.7022 26.9915 15.8388 27.0577 15.9986C27.1238 16.1584 27.1412 16.3342 27.1075 16.5039C27.0738 16.6735 26.9906 16.8293 26.8683 16.9517L24.8617 18.9584H26.25C26.4821 18.9584 26.7046 19.0506 26.8687 19.2147C27.0328 19.3787 27.125 19.6013 27.125 19.8334C27.125 20.0654 27.0328 20.288 26.8687 20.4521C26.7046 20.6162 26.4821 20.7084 26.25 20.7084H22.75C22.5771 20.7082 22.408 20.6568 22.2643 20.5607C22.1205 20.4645 22.0085 20.3279 21.9423 20.1681C21.8762 20.0083 21.8588 19.8325 21.8925 19.6629C21.9262 19.4932 22.0095 19.3374 22.1317 19.215L24.1383 17.2084H22.75Z" fill="white"/>
<path d="M21.0002 32.6667C27.4437 32.6667 32.6668 27.4435 32.6668 21C32.6668 20.4599 31.8572 20.37 31.5783 20.8332C30.9836 21.8183 30.1725 22.6551 29.2065 23.2803C28.2405 23.9054 27.1449 24.3026 26.0026 24.4416C24.8604 24.5806 23.7015 24.4579 22.6137 24.0827C21.5259 23.7075 20.5378 23.0897 19.7242 22.276C18.9105 21.4624 18.2927 20.4743 17.9175 19.3865C17.5423 18.2987 17.4196 17.1398 17.5586 15.9976C17.6976 14.8553 18.0948 13.7597 18.72 12.7937C19.3451 11.8277 20.1819 11.0166 21.167 10.4219C21.6302 10.1419 21.5403 9.33337 21.0002 9.33337C14.5567 9.33337 9.3335 14.5565 9.3335 21C9.3335 27.4435 14.5567 32.6667 21.0002 32.6667Z" fill="white"/>
</svg>
