<svg width="29" height="21" viewBox="0 0 29 21" fill="none" xmlns="http://www.w3.org/2000/svg">
<path d="M8.04894 2.92705C8.3483 2.00574 9.6517 2.00574 9.95106 2.92705L10.7961 5.52786C10.93 5.93989 11.3139 6.21885 11.7472 6.21885H14.4818C15.4505 6.21885 15.8533 7.45846 15.0696 8.02786L12.8572 9.63525C12.5067 9.8899 12.3601 10.3413 12.494 10.7533L13.339 13.3541C13.6384 14.2754 12.5839 15.0415 11.8002 14.4721L9.58779 12.8647C9.2373 12.6101 8.7627 12.6101 8.41222 12.8647L6.19983 14.4721C5.41612 15.0415 4.36164 14.2754 4.66099 13.3541L5.50604 10.7533C5.63992 10.3413 5.49326 9.8899 5.14277 9.63525L2.93039 8.02787C2.14668 7.45846 2.54945 6.21885 3.51818 6.21885H6.25283C6.68606 6.21885 7.07001 5.93989 7.20389 5.52786L8.04894 2.92705Z" fill="#2C94F8"/>
<path d="M21.0489 9.92705C21.3483 9.00574 22.6517 9.00574 22.9511 9.92705L23.3471 11.1459C23.481 11.5579 23.8649 11.8369 24.2981 11.8369H25.5797C26.5484 11.8369 26.9512 13.0765 26.1675 13.6459L25.1307 14.3992C24.7802 14.6538 24.6335 15.1052 24.7674 15.5172L25.1634 16.7361C25.4628 17.6574 24.4083 18.4235 23.6246 17.8541L22.5878 17.1008C22.2373 16.8462 21.7627 16.8462 21.4122 17.1008L20.3754 17.8541C19.5917 18.4235 18.5372 17.6574 18.8366 16.7361L19.2326 15.5172C19.3665 15.1052 19.2198 14.6538 18.8693 14.3992L17.8325 13.6459C17.0488 13.0765 17.4516 11.8369 18.4203 11.8369H19.7019C20.1351 11.8369 20.519 11.5579 20.6529 11.1459L21.0489 9.92705Z" fill="#2C94F8"/>
</svg>
