<svg width="24" height="24" viewBox="0 0 24 24" fill="none" xmlns="http://www.w3.org/2000/svg">
<path d="M6.385 13.615H8.595L13.858 8.346C13.944 8.24733 14.0083 8.144 14.051 8.036C14.0937 7.92733 14.115 7.81967 14.115 7.713C14.115 7.60633 14.0937 7.501 14.051 7.397C14.0083 7.29233 13.9457 7.19067 13.863 7.092L12.938 6.142C12.8527 6.056 12.7533 5.99167 12.64 5.949C12.5273 5.90633 12.416 5.885 12.306 5.885C12.1993 5.885 12.0927 5.903 11.986 5.939C11.8793 5.97567 11.777 6.04333 11.679 6.142L6.385 11.406V13.615ZM12.3 8.688L11.35 7.744L12.306 6.788L13.231 7.738L12.3 8.688ZM11.815 13.615H17.615V12.615H12.815L11.815 13.615ZM3 20.077V4.615C3 4.155 3.15433 3.771 3.463 3.463C3.771 3.15433 4.155 3 4.615 3H19.385C19.845 3 20.229 3.15433 20.537 3.463C20.8457 3.771 21 4.155 21 4.615V15.385C21 15.845 20.846 16.2293 20.538 16.538C20.2293 16.846 19.845 17 19.385 17H6.077L3 20.077Z" fill="white"/>
</svg>
