<svg width="24" height="24" viewBox="0 0 24 24" fill="none" xmlns="http://www.w3.org/2000/svg">
<path fill-rule="evenodd" clip-rule="evenodd" d="M12 2V7.054C12 7.478 12 7.891 12.046 8.231C12.097 8.614 12.223 9.051 12.586 9.414C12.949 9.777 13.386 9.903 13.77 9.954C14.11 10 14.522 10 14.946 10H20V16C20 18.828 20 20.243 19.121 21.121C18.243 22 16.828 22 14 22H10C7.172 22 5.757 22 4.879 21.121C4 20.243 4 18.828 4 16V8C4 5.172 4 3.757 4.879 2.879C5.757 2 7.172 2 10 2H12ZM14 2.005V7C14 7.5 14.002 7.774 14.028 7.964V7.971L14.036 7.972C14.226 7.998 14.5 8 15 8H19.995C19.985 7.588 19.952 7.316 19.848 7.063C19.696 6.696 19.407 6.406 18.828 5.828L16.172 3.172C15.594 2.594 15.305 2.304 14.937 2.152C14.684 2.047 14.412 2.015 14 2.005Z" fill="white"/>
</svg>
