<svg width="24" height="24" viewBox="0 0 24 24" fill="none" xmlns="http://www.w3.org/2000/svg">
<g clip-path="url(#clip0_500_446)">
<path d="M8.12675 5.89337C8.06272 5.69717 7.93758 5.52662 7.76964 5.40666C7.6017 5.2867 7.39978 5.22364 7.19342 5.22671H7.11342C6.90504 5.22182 6.70059 5.28396 6.53018 5.40397C6.35976 5.52398 6.23237 5.69554 6.16675 5.89337L0.760084 17.7067C0.698402 17.8286 0.666421 17.9634 0.666751 18.1C0.666751 18.2769 0.736988 18.4464 0.862013 18.5714C0.987037 18.6965 1.15661 18.7667 1.33342 18.7667C1.49246 18.769 1.64807 18.7204 1.77758 18.6281C1.90709 18.5357 2.00373 18.4045 2.05342 18.2534L3.44008 15.1534H10.7734L12.1601 18.2134C12.2147 18.3698 12.3152 18.5062 12.4483 18.6049C12.5814 18.7036 12.7412 18.7599 12.9068 18.7667C13.0977 18.7667 13.2808 18.6909 13.4159 18.5558C13.5509 18.4208 13.6268 18.2377 13.6268 18.0467C13.6193 17.9154 13.5877 17.7865 13.5334 17.6667L8.12675 5.89337ZM4.05342 13.8067L7.11342 6.99337L10.1801 13.8067H4.05342Z" fill="black"/>
<path d="M21.4934 9.85329C21.0733 9.48152 20.5835 9.19695 20.0525 9.01612C19.5214 8.8353 18.9597 8.76182 18.4001 8.79996C17.3201 8.79703 16.2519 9.0243 15.2667 9.46662C15.153 9.51921 15.0565 9.60276 14.9881 9.7077C14.9197 9.81264 14.8823 9.93472 14.8801 10.06C14.8927 10.2207 14.9631 10.3714 15.0784 10.4842C15.1936 10.5969 15.3458 10.6641 15.5067 10.6733C15.5958 10.6701 15.6836 10.6521 15.7667 10.62C16.5448 10.2632 17.3908 10.079 18.2467 10.08C20.0467 10.08 21.1001 10.9666 21.1001 12.6933V13.0266C20.143 12.7478 19.1502 12.6108 18.1534 12.62C15.7267 12.62 14.0601 13.6933 14.0601 15.7133V15.7466C14.0601 17.7133 15.8601 18.7333 17.6401 18.7333C18.3067 18.7527 18.9684 18.6128 19.5701 18.3253C20.1719 18.0378 20.6964 17.6108 21.1001 17.08V17.9333C21.1001 18.1101 21.1703 18.2797 21.2953 18.4047C21.4203 18.5297 21.5899 18.6 21.7667 18.6C21.8577 18.6001 21.9478 18.5816 22.0314 18.5457C22.115 18.5097 22.1904 18.457 22.2529 18.3908C22.3153 18.3246 22.3636 18.2463 22.3946 18.1607C22.4257 18.0752 22.4389 17.9841 22.4334 17.8933V12.6666C22.4733 12.1586 22.4107 11.6478 22.2492 11.1645C22.0877 10.6811 21.8307 10.2352 21.4934 9.85329ZM21.1201 14.9866C21.1201 16.5066 19.6734 17.58 17.9134 17.58C16.6201 17.58 15.5067 16.8733 15.5067 15.6733V15.6333C15.5067 14.4333 16.5067 13.6333 18.3067 13.6333C19.259 13.636 20.206 13.7729 21.1201 14.04V14.9866Z" fill="black"/>
</g>
<defs>
<clipPath id="clip0_500_446">
<rect width="24" height="24" fill="white"/>
</clipPath>
</defs>
</svg>
