<svg width="42" height="42" viewBox="0 0 42 42" fill="none" xmlns="http://www.w3.org/2000/svg">
<rect width="41.0455" height="41.0455" rx="9.54545" fill="#2C94F8"/>
<path d="M20.8015 17.5L24.4998 21.1867V21C24.4998 20.0717 24.1311 19.1815 23.4747 18.5251C22.8183 17.8687 21.9281 17.5 20.9998 17.5H20.8015ZM15.7848 18.4333L17.5932 20.2417C17.5348 20.4867 17.4998 20.7317 17.4998 21C17.4998 21.9283 17.8686 22.8185 18.525 23.4749C19.1813 24.1313 20.0716 24.5 20.9998 24.5C21.2565 24.5 21.5132 24.465 21.7582 24.4067L23.5665 26.215C22.7848 26.6 21.9215 26.8333 20.9998 26.8333C19.4527 26.8333 17.969 26.2188 16.875 25.1248C15.7811 24.0308 15.1665 22.5471 15.1665 21C15.1665 20.0783 15.3998 19.215 15.7848 18.4333ZM9.33317 11.9817L11.9932 14.6417L12.5182 15.1667C10.5932 16.6833 9.0765 18.6667 8.1665 21C10.1848 26.1217 15.1665 29.75 20.9998 29.75C22.8082 29.75 24.5348 29.4 26.1098 28.77L26.6115 29.26L30.0182 32.6667L31.4998 31.185L10.8148 10.5M20.9998 15.1667C22.5469 15.1667 24.0307 15.7812 25.1246 16.8752C26.2186 17.9692 26.8332 19.4529 26.8332 21C26.8332 21.7467 26.6815 22.47 26.4132 23.1233L29.8315 26.5417C31.5815 25.0833 32.9815 23.17 33.8332 21C31.8148 15.8783 26.8332 12.25 20.9998 12.25C19.3665 12.25 17.8032 12.5417 16.3332 13.0667L18.8648 15.575C19.5298 15.3183 20.2415 15.1667 20.9998 15.1667Z" fill="white"/>
</svg>
