<svg width="29" height="29" viewBox="0 0 29 29" fill="none" xmlns="http://www.w3.org/2000/svg">
<path d="M7.68367 6.43887C9.24713 5.12567 11.1772 4.32608 13.2113 4.1489V6.16524C13.2113 6.39884 13.3041 6.62286 13.4693 6.78803C13.6344 6.95321 13.8585 7.046 14.0921 7.046C14.3256 7.046 14.5497 6.95321 14.7148 6.78803C14.88 6.62286 14.9728 6.39884 14.9728 6.16524V4.1489C17.3571 4.36019 19.5861 5.42123 21.2535 7.13862C22.9209 8.856 23.9156 11.1154 24.0563 13.5049H22.0189C21.7853 13.5049 21.5612 13.5977 21.3961 13.7629C21.2309 13.928 21.1381 14.152 21.1381 14.3856C21.1381 14.6192 21.2309 14.8433 21.3961 15.0084C21.5612 15.1736 21.7853 15.2664 22.0189 15.2664H24.0082C23.7029 17.9815 22.3371 20.255 20.2879 21.9226C20.1066 22.0702 19.9914 22.2838 19.9676 22.5164C19.9439 22.7489 20.0134 22.9814 20.1611 23.1627C20.3087 23.3439 20.5223 23.4591 20.7548 23.4829C20.9874 23.5067 21.2199 23.4371 21.4012 23.2895C24.0152 21.1604 25.711 18.1294 25.8284 14.4996C25.8348 14.4387 25.8363 14.3774 25.8331 14.3164L25.8355 14.0921C25.8355 7.60616 20.5779 2.34863 14.0921 2.34863C7.60616 2.34863 2.34863 7.60616 2.34863 14.0921C2.34863 17.911 4.13716 21.0841 6.7759 23.2825C6.95602 23.4254 7.18489 23.4922 7.41361 23.4686C7.64233 23.4451 7.85277 23.333 7.99996 23.1563C8.14716 22.9797 8.21945 22.7525 8.20138 22.5233C8.18331 22.2941 8.07632 22.081 7.90327 21.9296C5.89515 20.255 4.49416 17.9756 4.17826 15.2664H6.16524C6.39884 15.2664 6.62286 15.1736 6.78803 15.0084C6.95321 14.8433 7.046 14.6192 7.046 14.3856C7.046 14.152 6.95321 13.928 6.78803 13.7629C6.62286 13.5977 6.39884 13.5049 6.16524 13.5049H4.12659C4.25576 11.2948 5.10246 9.27725 6.43887 7.68367L7.89153 9.13633C8.05849 9.29191 8.27932 9.3766 8.5075 9.37258C8.73567 9.36855 8.95338 9.27612 9.11475 9.11475C9.27612 8.95338 9.36855 8.73567 9.37258 8.5075C9.3766 8.27932 9.29191 8.05849 9.13633 7.89153L7.68367 6.43887ZM19.6819 7.79053C19.5454 7.68543 19.3772 7.62992 19.205 7.63312C19.0327 7.63632 18.8667 7.69805 18.7342 7.80815L18.4782 8.02305C17.5549 8.79845 16.6346 9.57744 15.7173 10.36C14.947 11.0176 14.159 11.6987 13.5295 12.2542C13.257 12.4938 12.9873 12.7365 12.7204 12.9823C12.5462 13.1383 12.3815 13.3046 12.2272 13.4802C12.0451 13.7044 11.9098 13.963 11.8295 14.2404C11.7491 14.5179 11.7254 14.8087 11.7595 15.0956C11.7937 15.3824 11.8851 15.6595 12.0284 15.9103C12.1717 16.1612 12.3639 16.3807 12.5936 16.5558C13.0614 16.9165 13.6514 17.0808 14.2383 17.0137C14.8253 16.9466 15.3629 16.6535 15.7373 16.1965C15.8406 16.0696 15.978 15.8489 16.119 15.6128C16.2693 15.3603 16.4537 15.0374 16.658 14.6757C17.0655 13.9476 17.5599 13.041 18.0378 12.1567C18.6055 11.1033 19.1688 10.0476 19.7277 8.98954L19.8816 8.69713C19.9613 8.54691 19.985 8.37322 19.9485 8.20712C19.9119 8.04102 19.8174 7.89335 19.6819 7.79053Z" fill="#2C94F8"/>
</svg>
